<svg width="988" height="407" viewBox="0 0 988 407" fill="none" xmlns="http://www.w3.org/2000/svg">
<path d="M328.947 229.663V314.681H305.279V229.663H328.947Z" fill="#060011"/>
<path d="M384.931 246.425C392.74 246.425 398.939 249.038 403.527 254.264C408.116 259.409 410.41 266.404 410.41 275.247V314.681H386.742V278.383C386.742 274.524 385.736 271.509 383.723 269.338C381.711 267.087 379.014 265.961 375.633 265.961C372.091 265.961 369.313 267.087 367.301 269.338C365.288 271.509 364.282 274.524 364.282 278.383V314.681H340.614V247.028H364.282V256.676C366.375 253.621 369.193 251.169 372.735 249.32C376.277 247.39 380.342 246.425 384.931 246.425Z" fill="#060011"/>
<path d="M450.447 315.525C444.328 315.525 438.854 314.52 434.024 312.51C429.274 310.42 425.49 307.606 422.673 304.069C419.936 300.451 418.406 296.391 418.084 291.889H441.028C441.35 294.06 442.356 295.748 444.046 296.954C445.737 298.16 447.83 298.763 450.326 298.763C452.258 298.763 453.787 298.361 454.914 297.557C456.042 296.753 456.605 295.708 456.605 294.421C456.605 292.733 455.679 291.487 453.828 290.683C451.976 289.879 448.917 288.995 444.65 288.03C439.82 287.065 435.795 285.98 432.575 284.774C429.355 283.568 426.537 281.598 424.122 278.865C421.787 276.131 420.62 272.433 420.62 267.77C420.62 263.751 421.707 260.133 423.88 256.917C426.054 253.621 429.234 251.008 433.42 249.079C437.687 247.149 442.799 246.184 448.756 246.184C457.611 246.184 464.575 248.355 469.647 252.696C474.718 257.038 477.657 262.746 478.462 269.82H457.088C456.686 267.65 455.72 266.002 454.19 264.876C452.741 263.67 450.769 263.067 448.273 263.067C446.341 263.067 444.852 263.429 443.805 264.153C442.839 264.876 442.356 265.881 442.356 267.167C442.356 268.775 443.282 270.021 445.133 270.906C446.985 271.71 449.964 272.554 454.069 273.438C458.98 274.483 463.045 275.649 466.266 276.935C469.566 278.222 472.424 280.312 474.839 283.206C477.335 286.02 478.583 289.879 478.583 294.783C478.583 298.722 477.415 302.26 475.081 305.395C472.827 308.531 469.566 311.023 465.299 312.872C461.113 314.641 456.162 315.525 450.447 315.525Z" fill="#060011"/>
<path d="M500.362 240.758C496.176 240.758 492.795 239.632 490.219 237.381C487.723 235.05 486.475 232.155 486.475 228.698C486.475 225.161 487.723 222.227 490.219 219.895C492.795 217.564 496.176 216.398 500.362 216.398C504.468 216.398 507.768 217.564 510.264 219.895C512.84 222.227 514.128 225.161 514.128 228.698C514.128 232.155 512.84 235.05 510.264 237.381C507.768 239.632 504.468 240.758 500.362 240.758ZM512.075 247.028V314.681H488.407V247.028H512.075Z" fill="#060011"/>
<path d="M548.739 246.184C553.327 246.184 557.312 247.109 560.694 248.958C564.155 250.807 566.812 253.299 568.663 256.435V247.028H592.331V313.957C592.331 320.309 591.124 326.017 588.709 331.081C586.294 336.227 582.51 340.327 577.358 343.382C572.286 346.437 565.846 347.964 558.037 347.964C547.571 347.964 539.199 345.512 532.92 340.608C526.64 335.704 523.058 329.031 522.172 320.59H545.478C545.961 322.761 547.169 324.449 549.101 325.655C551.033 326.861 553.529 327.464 556.588 327.464C564.638 327.464 568.663 322.962 568.663 313.957V305.275C566.812 308.41 564.155 310.902 560.694 312.751C557.312 314.6 553.327 315.525 548.739 315.525C543.345 315.525 538.434 314.118 534.007 311.304C529.659 308.49 526.198 304.471 523.622 299.245C521.126 293.939 519.878 287.789 519.878 280.794C519.878 273.8 521.126 267.69 523.622 262.464C526.198 257.239 529.659 253.219 534.007 250.405C538.434 247.591 543.345 246.184 548.739 246.184ZM568.663 280.794C568.663 276.453 567.456 273.036 565.041 270.544C562.706 268.052 559.808 266.806 556.346 266.806C552.804 266.806 549.866 268.052 547.531 270.544C545.197 272.956 544.029 276.373 544.029 280.794C544.029 285.136 545.197 288.593 547.531 291.165C549.866 293.658 552.804 294.904 556.346 294.904C559.808 294.904 562.706 293.658 565.041 291.165C567.456 288.673 568.663 285.216 568.663 280.794Z" fill="#060011"/>
<path d="M648.566 246.425C656.294 246.425 662.412 249.038 666.921 254.264C671.509 259.409 673.804 266.404 673.804 275.247V314.681H650.136V278.383C650.136 274.524 649.129 271.509 647.117 269.338C645.104 267.087 642.407 265.961 639.026 265.961C635.484 265.961 632.707 267.087 630.694 269.338C628.681 271.509 627.675 274.524 627.675 278.383V314.681H604.007V225.442H627.675V256.676C629.768 253.621 632.586 251.169 636.128 249.32C639.751 247.39 643.897 246.425 648.566 246.425Z" fill="#060011"/>
<path d="M724.949 294.542V314.681H714.685C697.377 314.681 688.723 306.119 688.723 288.995V266.685H680.391V247.028H688.723V230.628H712.512V247.028H724.829V266.685H712.512V289.356C712.512 291.206 712.914 292.532 713.719 293.336C714.605 294.14 716.054 294.542 718.066 294.542H724.949Z" fill="#060011"/>
<path d="M762.854 315.525C756.736 315.525 751.262 314.52 746.432 312.51C741.682 310.42 737.898 307.606 735.081 304.069C732.343 300.451 730.814 296.391 730.492 291.889H753.435C753.757 294.06 754.764 295.748 756.454 296.954C758.145 298.16 760.238 298.763 762.734 298.763C764.666 298.763 766.195 298.361 767.322 297.557C768.449 296.753 769.013 295.708 769.013 294.421C769.013 292.733 768.087 291.487 766.236 290.683C764.384 289.879 761.325 288.995 757.058 288.03C752.228 287.065 748.203 285.98 744.983 284.774C741.762 283.568 738.945 281.598 736.53 278.865C734.195 276.131 733.028 272.433 733.028 267.77C733.028 263.751 734.115 260.133 736.288 256.917C738.462 253.621 741.642 251.008 745.828 249.079C750.095 247.149 755.206 246.184 761.164 246.184C770.019 246.184 776.983 248.355 782.054 252.696C787.126 257.038 790.065 262.746 790.87 269.82H769.496C769.093 267.65 768.127 266.002 766.598 264.876C765.149 263.67 763.176 263.067 760.681 263.067C758.749 263.067 757.259 263.429 756.213 264.153C755.247 264.876 754.764 265.881 754.764 267.167C754.764 268.775 755.69 270.021 757.541 270.906C759.393 271.71 762.371 272.554 766.477 273.438C771.388 274.483 775.453 275.649 778.673 276.935C781.974 278.222 784.832 280.312 787.247 283.206C789.743 286.02 790.99 289.879 790.99 294.783C790.99 298.722 789.823 302.26 787.488 305.395C785.234 308.531 781.974 311.023 777.707 312.872C773.521 314.641 768.57 315.525 762.854 315.525Z" fill="#060011"/>
<path d="M130.067 229.553V287.273H115.988V229.553H130.067Z" fill="#060011"/>
<path d="M167.852 240.9C173.231 240.9 177.512 242.654 180.696 246.162C183.934 249.616 185.554 254.385 185.554 260.469V287.273H171.557V262.36C171.557 259.291 170.761 256.906 169.169 255.207C167.577 253.508 165.437 252.658 162.747 252.658C160.058 252.658 157.917 253.508 156.325 255.207C154.733 256.906 153.938 259.291 153.938 262.36V287.273H139.859V241.393H153.938V247.478C155.365 245.45 157.286 243.86 159.701 242.709C162.116 241.503 164.833 240.9 167.852 240.9Z" fill="#060011"/>
<path d="M220.531 275.351V287.273H213.368C208.263 287.273 204.284 286.04 201.43 283.573C198.575 281.052 197.148 276.968 197.148 271.322V253.069H191.55V241.393H197.148V230.211H211.227V241.393H220.449V253.069H211.227V271.487C211.227 272.857 211.557 273.844 212.215 274.447C212.874 275.05 213.972 275.351 215.509 275.351H220.531Z" fill="#060011"/>
<path d="M248.874 287.931C244.373 287.931 240.312 286.972 236.689 285.053C233.121 283.135 230.294 280.394 228.209 276.831C226.178 273.268 225.162 269.102 225.162 264.333C225.162 259.619 226.205 255.481 228.291 251.918C230.377 248.3 233.231 245.532 236.854 243.613C240.476 241.695 244.538 240.736 249.039 240.736C253.54 240.736 257.602 241.695 261.224 243.613C264.847 245.532 267.701 248.3 269.787 251.918C271.873 255.481 272.916 259.619 272.916 264.333C272.916 269.048 271.845 273.213 269.705 276.831C267.619 280.394 264.737 283.135 261.06 285.053C257.437 286.972 253.375 287.931 248.874 287.931ZM248.874 275.762C251.564 275.762 253.842 274.776 255.708 272.802C257.629 270.829 258.59 268.006 258.59 264.333C258.59 260.661 257.657 257.838 255.79 255.865C253.979 253.891 251.729 252.905 249.039 252.905C246.295 252.905 244.017 253.891 242.205 255.865C240.394 257.783 239.488 260.606 239.488 264.333C239.488 268.006 240.367 270.829 242.123 272.802C243.934 274.776 246.185 275.762 248.874 275.762Z" fill="#060011"/>
<g opacity="0.3">
<path d="M563.547 174.259C565.976 174.259 568.096 174.752 569.908 175.739C571.76 176.726 573.18 178.021 574.168 179.624V174.752H584.728V209.101C584.728 212.266 584.09 215.123 582.813 217.672C581.578 220.262 579.664 222.318 577.071 223.839C574.518 225.36 571.328 226.121 567.499 226.121C562.395 226.121 558.258 224.908 555.088 222.482C551.918 220.098 550.107 216.85 549.654 212.739H560.089C560.419 214.055 561.201 215.082 562.436 215.822C563.671 216.603 565.194 216.994 567.005 216.994C569.187 216.994 570.916 216.357 572.192 215.082C573.51 213.849 574.168 211.855 574.168 209.101V204.229C573.139 205.832 571.719 207.148 569.908 208.176C568.096 209.162 565.976 209.656 563.547 209.656C560.707 209.656 558.134 208.936 555.829 207.497C553.523 206.017 551.691 203.941 550.333 201.269C549.016 198.556 548.357 195.431 548.357 191.896C548.357 188.36 549.016 185.256 550.333 182.584C551.691 179.912 553.523 177.856 555.829 176.417C558.134 174.978 560.707 174.259 563.547 174.259ZM574.168 191.957C574.168 189.326 573.427 187.25 571.945 185.729C570.505 184.208 568.734 183.447 566.635 183.447C564.535 183.447 562.745 184.208 561.263 185.729C559.822 187.209 559.101 189.265 559.101 191.896C559.101 194.527 559.822 196.623 561.263 198.186C562.745 199.707 564.535 200.467 566.635 200.467C568.734 200.467 570.505 199.707 571.945 198.186C573.427 196.665 574.168 194.588 574.168 191.957Z" fill="#8593A3"/>
<path d="M624.847 191.402C624.847 192.389 624.786 193.417 624.662 194.486H600.765C600.929 196.623 601.609 198.268 602.803 199.419C604.038 200.529 605.54 201.084 607.31 201.084C609.945 201.084 611.777 199.974 612.806 197.754H624.045C623.468 200.015 622.418 202.05 620.895 203.859C619.413 205.668 617.54 207.086 615.276 208.114C613.012 209.142 610.48 209.656 607.681 209.656C604.305 209.656 601.3 208.936 598.665 207.497C596.031 206.058 593.972 204.003 592.49 201.331C591.008 198.658 590.267 195.534 590.267 191.957C590.267 188.381 590.988 185.256 592.429 182.584C593.911 179.912 595.969 177.856 598.604 176.417C601.238 174.978 604.264 174.259 607.681 174.259C611.015 174.259 613.979 174.958 616.573 176.356C619.166 177.753 621.184 179.747 622.624 182.337C624.106 184.927 624.847 187.949 624.847 191.402ZM614.041 188.627C614.041 186.818 613.424 185.38 612.189 184.311C610.954 183.242 609.41 182.707 607.557 182.707C605.787 182.707 604.285 183.221 603.05 184.249C601.856 185.277 601.115 186.736 600.827 188.627H614.041Z" fill="#8593A3"/>
<path d="M651.413 174.382C655.447 174.382 658.658 175.698 661.046 178.329C663.475 180.919 664.689 184.496 664.689 189.059V209.162H654.192V190.477C654.192 188.175 653.595 186.387 652.401 185.112C651.207 183.838 649.602 183.201 647.584 183.201C645.567 183.201 643.962 183.838 642.768 185.112C641.574 186.387 640.977 188.175 640.977 190.477V209.162H630.418V174.752H640.977V179.316C642.047 177.795 643.488 176.602 645.3 175.739C647.111 174.835 649.149 174.382 651.413 174.382Z" fill="#8593A3"/>
<path d="M704.507 191.402C704.507 192.389 704.445 193.417 704.322 194.486H680.425C680.589 196.623 681.269 198.268 682.462 199.419C683.697 200.529 685.2 201.084 686.97 201.084C689.605 201.084 691.437 199.974 692.466 197.754H703.704C703.128 200.015 702.078 202.05 700.555 203.859C699.073 205.668 697.2 207.086 694.936 208.114C692.672 209.142 690.14 209.656 687.341 209.656C683.965 209.656 680.96 208.936 678.325 207.497C675.691 206.058 673.632 204.003 672.15 201.331C670.668 198.658 669.927 195.534 669.927 191.957C669.927 188.381 670.648 185.256 672.088 182.584C673.57 179.912 675.629 177.856 678.263 176.417C680.898 174.978 683.924 174.259 687.341 174.259C690.675 174.259 693.639 174.958 696.233 176.356C698.826 177.753 700.843 179.747 702.284 182.337C703.766 184.927 704.507 187.949 704.507 191.402ZM693.701 188.627C693.701 186.818 693.083 185.38 691.848 184.311C690.613 183.242 689.07 182.707 687.217 182.707C685.447 182.707 683.944 183.221 682.709 184.249C681.516 185.277 680.775 186.736 680.486 188.627H693.701Z" fill="#8593A3"/>
<path d="M720.637 180.487C721.872 178.596 723.416 177.116 725.268 176.047C727.121 174.937 729.179 174.382 731.443 174.382V185.544H728.541C725.906 185.544 723.93 186.12 722.613 187.271C721.296 188.381 720.637 190.354 720.637 193.191V209.162H710.078V174.752H720.637V180.487Z" fill="#8593A3"/>
<path d="M734.391 191.896C734.391 188.36 735.05 185.256 736.367 182.584C737.725 179.912 739.557 177.856 741.863 176.417C744.168 174.978 746.741 174.259 749.581 174.259C752.01 174.259 754.13 174.752 755.942 175.739C757.794 176.726 759.214 178.021 760.202 179.624V174.752H770.762V209.162H760.202V204.291C759.173 205.894 757.732 207.189 755.88 208.176C754.069 209.162 751.948 209.656 749.52 209.656C746.72 209.656 744.168 208.936 741.863 207.497C739.557 206.017 737.725 203.941 736.367 201.269C735.05 198.556 734.391 195.431 734.391 191.896ZM760.202 191.957C760.202 189.326 759.461 187.25 757.979 185.729C756.539 184.208 754.768 183.447 752.669 183.447C750.569 183.447 748.779 184.208 747.297 185.729C745.856 187.209 745.135 189.265 745.135 191.896C745.135 194.527 745.856 196.623 747.297 198.186C748.779 199.707 750.569 200.467 752.669 200.467C754.768 200.467 756.539 199.707 757.979 198.186C759.461 196.665 760.202 194.588 760.202 191.957Z" fill="#8593A3"/>
<path d="M797.605 200.221V209.162H792.233C788.404 209.162 785.42 208.237 783.279 206.387C781.138 204.496 780.068 201.433 780.068 197.199V183.509H775.869V174.752H780.068V166.366H790.627V174.752H797.543V183.509H790.627V197.322C790.627 198.35 790.874 199.09 791.368 199.542C791.862 199.995 792.686 200.221 793.838 200.221H797.605Z" fill="#8593A3"/>
<path d="M819.171 209.656C815.796 209.656 812.749 208.936 810.032 207.497C807.356 206.058 805.236 204.003 803.672 201.331C802.149 198.658 801.387 195.534 801.387 191.957C801.387 188.422 802.169 185.318 803.734 182.646C805.298 179.932 807.439 177.856 810.156 176.417C812.873 174.978 815.919 174.259 819.295 174.259C822.67 174.259 825.717 174.978 828.434 176.417C831.151 177.856 833.291 179.932 834.856 182.646C836.42 185.318 837.202 188.422 837.202 191.957C837.202 195.493 836.399 198.617 834.794 201.331C833.23 204.003 831.068 206.058 828.31 207.497C825.593 208.936 822.547 209.656 819.171 209.656ZM819.171 200.529C821.188 200.529 822.897 199.789 824.296 198.309C825.737 196.829 826.458 194.712 826.458 191.957C826.458 189.203 825.758 187.086 824.358 185.606C823 184.126 821.312 183.386 819.295 183.386C817.236 183.386 815.528 184.126 814.169 185.606C812.811 187.045 812.132 189.162 812.132 191.957C812.132 194.712 812.79 196.829 814.108 198.309C815.466 199.789 817.154 200.529 819.171 200.529Z" fill="#8593A3"/>
<path d="M853.363 180.487C854.598 178.596 856.142 177.116 857.995 176.047C859.847 174.937 861.905 174.382 864.17 174.382V185.544H861.267C858.633 185.544 856.657 186.12 855.339 187.271C854.022 188.381 853.363 190.354 853.363 193.191V209.162H842.804V174.752H853.363V180.487Z" fill="#8593A3"/>
</g>
<g opacity="0.3">
<path d="M650.659 144.59L655.972 127.137H663.964L655.27 151.607H646.005L637.31 127.137H645.346L650.659 144.59Z" fill="#8593A3"/>
<path d="M671.011 124.594C669.694 124.594 668.61 124.214 667.762 123.454C666.942 122.665 666.532 121.7 666.532 120.56C666.532 119.39 666.942 118.426 667.762 117.665C668.61 116.876 669.694 116.481 671.011 116.481C672.299 116.481 673.353 116.876 674.173 117.665C675.021 118.426 675.446 119.39 675.446 120.56C675.446 121.7 675.021 122.665 674.173 123.454C673.353 124.214 672.299 124.594 671.011 124.594ZM674.743 127.137V151.607H667.235V127.137H674.743Z" fill="#8593A3"/>
<path d="M690.263 151.958C688.126 151.958 686.223 151.592 684.554 150.861C682.885 150.13 681.568 149.136 680.602 147.879C679.636 146.593 679.094 145.161 678.977 143.582H686.398C686.486 144.43 686.881 145.117 687.584 145.643C688.287 146.169 689.15 146.432 690.175 146.432C691.111 146.432 691.829 146.257 692.326 145.906C692.853 145.526 693.117 145.044 693.117 144.459C693.117 143.757 692.751 143.246 692.019 142.924C691.287 142.573 690.102 142.193 688.462 141.784C686.706 141.375 685.242 140.951 684.071 140.512C682.9 140.045 681.89 139.328 681.041 138.364C680.192 137.37 679.768 136.039 679.768 134.373C679.768 132.97 680.148 131.698 680.909 130.558C681.7 129.389 682.842 128.468 684.335 127.795C685.857 127.123 687.657 126.787 689.736 126.787C692.809 126.787 695.224 127.547 696.981 129.067C698.767 130.587 699.791 132.604 700.055 135.118H693.117C693 134.271 692.619 133.598 691.975 133.101C691.36 132.604 690.541 132.356 689.516 132.356C688.638 132.356 687.965 132.531 687.496 132.882C687.028 133.204 686.794 133.657 686.794 134.241C686.794 134.943 687.159 135.469 687.891 135.82C688.652 136.171 689.823 136.522 691.404 136.873C693.219 137.34 694.698 137.808 695.839 138.276C696.981 138.714 697.976 139.445 698.825 140.468C699.703 141.462 700.157 142.807 700.186 144.503C700.186 145.935 699.777 147.222 698.957 148.362C698.167 149.473 697.01 150.35 695.488 150.993C693.995 151.636 692.253 151.958 690.263 151.958Z" fill="#8593A3"/>
<path d="M729.085 127.137V151.607H721.576V148.274C720.815 149.356 719.776 150.233 718.459 150.905C717.171 151.548 715.736 151.87 714.155 151.87C712.282 151.87 710.628 151.461 709.193 150.642C707.759 149.794 706.647 148.581 705.856 147.002C705.066 145.424 704.671 143.567 704.671 141.433V127.137H712.135V140.425C712.135 142.062 712.56 143.333 713.409 144.24C714.258 145.146 715.399 145.599 716.834 145.599C718.298 145.599 719.454 145.146 720.303 144.24C721.152 143.333 721.576 142.062 721.576 140.425V127.137H729.085Z" fill="#8593A3"/>
<path d="M733.095 139.328C733.095 136.814 733.564 134.607 734.501 132.707C735.467 130.806 736.769 129.345 738.409 128.321C740.048 127.298 741.878 126.787 743.898 126.787C745.625 126.787 747.132 127.137 748.42 127.839C749.738 128.541 750.748 129.462 751.45 130.602V127.137H758.959V151.607H751.45V148.142C750.718 149.283 749.694 150.204 748.376 150.905C747.088 151.607 745.581 151.958 743.854 151.958C741.863 151.958 740.048 151.446 738.409 150.423C736.769 149.37 735.467 147.894 734.501 145.994C733.564 144.064 733.095 141.842 733.095 139.328ZM751.45 139.372C751.45 137.501 750.923 136.025 749.869 134.943C748.845 133.861 747.586 133.321 746.093 133.321C744.6 133.321 743.327 133.861 742.273 134.943C741.248 135.996 740.736 137.457 740.736 139.328C740.736 141.199 741.248 142.69 742.273 143.801C743.327 144.883 744.6 145.424 746.093 145.424C747.586 145.424 748.845 144.883 749.869 143.801C750.923 142.719 751.45 141.243 751.45 139.372Z" fill="#8593A3"/>
<path d="M772.01 119.156V151.607H764.501V119.156H772.01Z" fill="#8593A3"/>
<path d="M781.338 124.594C780.02 124.594 778.937 124.214 778.088 123.454C777.269 122.665 776.859 121.7 776.859 120.56C776.859 119.39 777.269 118.426 778.088 117.665C778.937 116.876 780.02 116.481 781.338 116.481C782.626 116.481 783.68 116.876 784.499 117.665C785.348 118.426 785.773 119.39 785.773 120.56C785.773 121.7 785.348 122.665 784.499 123.454C783.68 124.214 782.626 124.594 781.338 124.594ZM785.07 127.137V151.607H777.561V127.137H785.07Z" fill="#8593A3"/>
<path d="M797.647 145.424H808.274V151.607H789.26V145.643L799.448 133.321H789.348V127.137H808.054V133.101L797.647 145.424Z" fill="#8593A3"/>
<path d="M835.612 138.977C835.612 139.679 835.569 140.41 835.481 141.17H818.487C818.604 142.69 819.087 143.86 819.936 144.678C820.814 145.468 821.883 145.862 823.142 145.862C825.015 145.862 826.318 145.073 827.05 143.494H835.042C834.632 145.102 833.885 146.549 832.802 147.836C831.748 149.122 830.416 150.13 828.806 150.861C827.196 151.592 825.396 151.958 823.405 151.958C821.005 151.958 818.868 151.446 816.994 150.423C815.121 149.4 813.657 147.938 812.603 146.038C811.549 144.137 811.022 141.916 811.022 139.372C811.022 136.829 811.535 134.607 812.559 132.707C813.613 130.806 815.077 129.345 816.95 128.321C818.824 127.298 820.975 126.787 823.405 126.787C825.776 126.787 827.884 127.284 829.728 128.278C831.573 129.272 833.007 130.689 834.032 132.531C835.085 134.373 835.612 136.522 835.612 138.977ZM827.928 137.004C827.928 135.718 827.489 134.695 826.611 133.934C825.732 133.174 824.635 132.794 823.317 132.794C822.059 132.794 820.99 133.16 820.112 133.891C819.263 134.621 818.736 135.659 818.531 137.004H827.928Z" fill="#8593A3"/>
</g>
<g opacity="0.3">
<path d="M390.007 35.4762C387.607 35.4762 385.441 34.9645 383.509 33.9413C381.606 32.9181 380.098 31.4564 378.986 29.5562C377.903 27.6559 377.361 25.4341 377.361 22.8907C377.361 20.3765 377.917 18.1693 379.03 16.269C380.142 14.3396 381.664 12.8632 383.596 11.84C385.529 10.8168 387.695 10.3052 390.095 10.3052C392.496 10.3052 394.662 10.8168 396.594 11.84C398.526 12.8632 400.048 14.3396 401.161 16.269C402.273 18.1693 402.83 20.3765 402.83 22.8907C402.83 25.4048 402.259 27.6267 401.117 29.5562C400.005 31.4564 398.468 32.9181 396.506 33.9413C394.574 34.9645 392.408 35.4762 390.007 35.4762ZM390.007 28.9861C391.442 28.9861 392.657 28.4599 393.652 27.4074C394.677 26.355 395.189 24.8494 395.189 22.8907C395.189 20.932 394.691 19.4264 393.696 18.3739C392.73 17.3215 391.53 16.7953 390.095 16.7953C388.632 16.7953 387.417 17.3215 386.451 18.3739C385.485 19.3971 385.002 20.9027 385.002 22.8907C385.002 24.8494 385.47 26.355 386.407 27.4074C387.373 28.4599 388.573 28.9861 390.007 28.9861Z" fill="#8593A3"/>
<path d="M414.432 14.1203C415.164 12.9802 416.173 12.0593 417.462 11.3576C418.75 10.656 420.257 10.3052 421.984 10.3052C424.004 10.3052 425.834 10.8168 427.473 11.84C429.113 12.8632 430.401 14.3249 431.337 16.2252C432.303 18.1254 432.787 20.3326 432.787 22.8468C432.787 25.361 432.303 27.5828 431.337 29.5123C430.401 31.4125 429.113 32.8889 427.473 33.9413C425.834 34.9645 424.004 35.4762 421.984 35.4762C420.286 35.4762 418.779 35.1253 417.462 34.4237C416.173 33.7221 415.164 32.8158 414.432 31.7049V46.7899H406.923V10.656H414.432V14.1203ZM425.146 22.8468C425.146 20.9758 424.619 19.5141 423.565 18.4616C422.541 17.38 421.267 16.8391 419.745 16.8391C418.252 16.8391 416.979 17.38 415.925 18.4616C414.9 19.5433 414.388 21.0197 414.388 22.8907C414.388 24.7617 414.9 26.238 415.925 27.3197C416.979 28.4014 418.252 28.9422 419.745 28.9422C421.238 28.9422 422.511 28.4014 423.565 27.3197C424.619 26.2088 425.146 24.7178 425.146 22.8468Z" fill="#8593A3"/>
<path d="M450.492 28.7668V35.1253H446.672C443.949 35.1253 441.827 34.4676 440.305 33.152C438.782 31.8072 438.021 29.6292 438.021 26.6181V16.883H435.035V10.656H438.021V4.69215H445.53V10.656H450.448V16.883H445.53V26.7058C445.53 27.4366 445.706 27.9629 446.057 28.2844C446.408 28.606 446.994 28.7668 447.813 28.7668H450.492Z" fill="#8593A3"/>
<path d="M458.561 8.11259C457.243 8.11259 456.16 7.73254 455.311 6.97245C454.492 6.18311 454.082 5.21837 454.082 4.07822C454.082 2.90884 454.492 1.9441 455.311 1.184C456.16 0.394667 457.243 0 458.561 0C459.849 0 460.903 0.394667 461.722 1.184C462.571 1.9441 462.996 2.90884 462.996 4.07822C462.996 5.21837 462.571 6.18311 461.722 6.97245C460.903 7.73254 459.849 8.11259 458.561 8.11259ZM462.293 10.656V35.1253H454.784V10.656H462.293Z" fill="#8593A3"/>
<path d="M478.998 35.4762C476.597 35.4762 474.431 34.9645 472.499 33.9413C470.596 32.9181 469.089 31.4564 467.976 29.5562C466.893 27.6559 466.351 25.4341 466.351 22.8907C466.351 20.3765 466.908 18.1693 468.02 16.269C469.132 14.3396 470.655 12.8632 472.587 11.84C474.519 10.8168 476.685 10.3052 479.086 10.3052C481.486 10.3052 483.652 10.8168 485.584 11.84C487.517 12.8632 489.039 14.3396 490.151 16.269C491.264 18.1693 491.82 20.3765 491.82 22.8907C491.82 25.4048 491.249 27.6267 490.107 29.5562C488.995 31.4564 487.458 32.9181 485.497 33.9413C483.565 34.9645 481.398 35.4762 478.998 35.4762ZM478.998 28.9861C480.432 28.9861 481.647 28.4599 482.642 27.4074C483.667 26.355 484.179 24.8494 484.179 22.8907C484.179 20.932 483.682 19.4264 482.686 18.3739C481.72 17.3215 480.52 16.7953 479.086 16.7953C477.622 16.7953 476.407 17.3215 475.441 18.3739C474.475 19.3971 473.992 20.9027 473.992 22.8907C473.992 24.8494 474.46 26.355 475.397 27.4074C476.363 28.4599 477.563 28.9861 478.998 28.9861Z" fill="#8593A3"/>
<path d="M510.843 10.3929C513.712 10.3929 515.995 11.3284 517.693 13.1994C519.42 15.0412 520.284 17.5846 520.284 20.8296V35.1253H512.819V21.8382C512.819 20.2011 512.395 18.9294 511.546 18.0231C510.697 17.1168 509.555 16.6637 508.12 16.6637C506.686 16.6637 505.544 17.1168 504.695 18.0231C503.846 18.9294 503.422 20.2011 503.422 21.8382V35.1253H495.913V10.656H503.422V13.901C504.183 12.8194 505.208 11.9716 506.496 11.3576C507.784 10.7145 509.233 10.3929 510.843 10.3929Z" fill="#8593A3"/>
<path d="M535.579 35.4762C533.442 35.4762 531.54 35.1107 529.871 34.3799C528.202 33.649 526.885 32.655 525.919 31.3979C524.953 30.1116 524.411 28.6791 524.294 27.1004H531.715C531.803 27.9482 532.198 28.6353 532.901 29.1615C533.603 29.6877 534.467 29.9508 535.492 29.9508C536.428 29.9508 537.146 29.7754 537.643 29.4246C538.17 29.0445 538.434 28.5622 538.434 27.9775C538.434 27.2759 538.068 26.7642 537.336 26.4427C536.604 26.0919 535.418 25.7118 533.779 25.3025C532.023 24.8932 530.559 24.4693 529.388 24.0308C528.217 23.5631 527.207 22.8468 526.358 21.8821C525.509 20.8881 525.085 19.5579 525.085 17.8916C525.085 16.4883 525.465 15.2166 526.226 14.0764C527.017 12.9071 528.158 11.9862 529.651 11.3138C531.174 10.6414 532.974 10.3052 535.052 10.3052C538.126 10.3052 540.541 11.0653 542.298 12.5855C544.083 14.1057 545.108 16.1229 545.372 18.637H538.434C538.316 17.7892 537.936 17.1168 537.292 16.6199C536.677 16.1229 535.857 15.8744 534.833 15.8744C533.955 15.8744 533.281 16.0498 532.813 16.4006C532.345 16.7222 532.11 17.1753 532.11 17.76C532.11 18.4616 532.476 18.9879 533.208 19.3387C533.969 19.6895 535.14 20.0403 536.721 20.3911C538.536 20.8589 540.014 21.3266 541.156 21.7944C542.298 22.2329 543.293 22.9638 544.142 23.987C545.02 24.9809 545.474 26.3257 545.503 28.0213C545.503 29.4538 545.093 30.7402 544.274 31.8803C543.483 32.9912 542.327 33.8683 540.805 34.5114C539.312 35.1546 537.57 35.4762 535.579 35.4762Z" fill="#8593A3"/>
</g>
<g opacity="0.3">
<path d="M152.713 323.1C151.511 323.1 150.44 322.895 149.502 322.484C148.563 322.073 147.822 321.514 147.279 320.806C146.735 320.083 146.431 319.277 146.365 318.389H150.539C150.588 318.866 150.811 319.252 151.206 319.548C151.601 319.844 152.087 319.992 152.663 319.992C153.19 319.992 153.594 319.894 153.874 319.696C154.17 319.483 154.318 319.211 154.318 318.882C154.318 318.488 154.112 318.2 153.701 318.019C153.289 317.822 152.622 317.608 151.7 317.378C150.712 317.148 149.889 316.909 149.23 316.662C148.571 316.399 148.003 315.996 147.526 315.454C147.048 314.895 146.809 314.146 146.809 313.209C146.809 312.42 147.023 311.704 147.452 311.063C147.896 310.405 148.538 309.887 149.378 309.509C150.234 309.131 151.247 308.942 152.416 308.942C154.145 308.942 155.504 309.369 156.492 310.224C157.496 311.08 158.073 312.214 158.221 313.628H154.318C154.252 313.152 154.038 312.773 153.676 312.494C153.33 312.214 152.869 312.074 152.293 312.074C151.799 312.074 151.42 312.173 151.157 312.37C150.893 312.551 150.761 312.806 150.761 313.135C150.761 313.53 150.967 313.826 151.379 314.023C151.807 314.22 152.466 314.418 153.355 314.615C154.376 314.878 155.207 315.141 155.85 315.404C156.492 315.651 157.052 316.062 157.529 316.638C158.023 317.197 158.278 317.953 158.295 318.907C158.295 319.713 158.064 320.436 157.603 321.078C157.159 321.703 156.508 322.196 155.652 322.558C154.812 322.92 153.832 323.1 152.713 323.1Z" fill="#8593A3"/>
<path d="M173.933 315.799C173.933 316.194 173.908 316.605 173.859 317.032H164.3C164.366 317.888 164.637 318.545 165.115 319.006C165.609 319.45 166.21 319.672 166.918 319.672C167.972 319.672 168.705 319.228 169.116 318.34H173.612C173.381 319.244 172.961 320.058 172.352 320.782C171.759 321.505 171.01 322.073 170.104 322.484C169.199 322.895 168.186 323.1 167.066 323.1C165.716 323.1 164.514 322.813 163.46 322.237C162.406 321.662 161.583 320.839 160.99 319.77C160.397 318.702 160.101 317.452 160.101 316.021C160.101 314.59 160.389 313.341 160.965 312.272C161.558 311.203 162.381 310.381 163.435 309.805C164.489 309.23 165.7 308.942 167.066 308.942C168.4 308.942 169.586 309.221 170.623 309.78C171.66 310.34 172.467 311.137 173.044 312.173C173.636 313.209 173.933 314.418 173.933 315.799ZM169.61 314.689C169.61 313.966 169.363 313.39 168.869 312.962C168.375 312.535 167.758 312.321 167.017 312.321C166.309 312.321 165.708 312.527 165.214 312.938C164.736 313.349 164.44 313.933 164.325 314.689H169.61Z" fill="#8593A3"/>
<path d="M184.621 308.991C186.235 308.991 187.519 309.517 188.474 310.57C189.446 311.606 189.931 313.036 189.931 314.862V322.903H185.732V315.429C185.732 314.508 185.494 313.793 185.016 313.283C184.538 312.773 183.896 312.518 183.089 312.518C182.283 312.518 181.64 312.773 181.163 313.283C180.685 313.793 180.446 314.508 180.446 315.429V322.903H176.223V309.139H180.446V310.964C180.875 310.356 181.451 309.879 182.175 309.534C182.9 309.172 183.715 308.991 184.621 308.991Z" fill="#8593A3"/>
<path d="M200.61 319.326V322.903H198.461C196.93 322.903 195.736 322.533 194.879 321.793C194.023 321.037 193.595 319.812 193.595 318.118V312.642H191.915V309.139H193.595V305.784H197.819V309.139H200.585V312.642H197.819V318.167C197.819 318.578 197.917 318.874 198.115 319.055C198.313 319.236 198.642 319.326 199.103 319.326H200.61Z" fill="#8593A3"/>
<path d="M205.148 307.708C204.407 307.708 203.798 307.495 203.321 307.067C202.86 306.623 202.629 306.08 202.629 305.439C202.629 304.781 202.86 304.239 203.321 303.811C203.798 303.367 204.407 303.145 205.148 303.145C205.873 303.145 206.466 303.367 206.927 303.811C207.404 304.239 207.643 304.781 207.643 305.439C207.643 306.08 207.404 306.623 206.927 307.067C206.466 307.495 205.873 307.708 205.148 307.708ZM207.248 309.139V322.903H203.024V309.139H207.248Z" fill="#8593A3"/>
<path d="M227.957 308.991C229.669 308.991 231.028 309.509 232.032 310.545C233.053 311.581 233.564 313.02 233.564 314.862V322.903H229.365V315.429C229.365 314.541 229.126 313.859 228.649 313.382C228.187 312.888 227.545 312.642 226.722 312.642C225.899 312.642 225.248 312.888 224.771 313.382C224.31 313.859 224.079 314.541 224.079 315.429V322.903H219.88V315.429C219.88 314.541 219.641 313.859 219.164 313.382C218.703 312.888 218.06 312.642 217.237 312.642C216.414 312.642 215.763 312.888 215.286 313.382C214.825 313.859 214.594 314.541 214.594 315.429V322.903H210.371V309.139H214.594V310.866C215.022 310.29 215.582 309.838 216.274 309.509C216.965 309.164 217.748 308.991 218.62 308.991C219.658 308.991 220.58 309.213 221.387 309.657C222.21 310.101 222.852 310.734 223.313 311.556C223.791 310.8 224.441 310.183 225.265 309.706C226.088 309.23 226.985 308.991 227.957 308.991Z" fill="#8593A3"/>
<path d="M249.572 315.799C249.572 316.194 249.547 316.605 249.498 317.032H239.939C240.005 317.888 240.276 318.545 240.754 319.006C241.248 319.45 241.849 319.672 242.557 319.672C243.611 319.672 244.344 319.228 244.755 318.34H249.251C249.02 319.244 248.6 320.058 247.991 320.782C247.398 321.505 246.649 322.073 245.743 322.484C244.838 322.895 243.825 323.1 242.705 323.1C241.355 323.1 240.153 322.813 239.099 322.237C238.045 321.662 237.222 320.839 236.629 319.77C236.036 318.702 235.74 317.452 235.74 316.021C235.74 314.59 236.028 313.341 236.604 312.272C237.197 311.203 238.02 310.381 239.074 309.805C240.128 309.23 241.338 308.942 242.705 308.942C244.039 308.942 245.225 309.221 246.262 309.78C247.299 310.34 248.106 311.137 248.683 312.173C249.275 313.209 249.572 314.418 249.572 315.799ZM245.249 314.689C245.249 313.966 245.002 313.39 244.508 312.962C244.014 312.535 243.397 312.321 242.656 312.321C241.948 312.321 241.347 312.527 240.853 312.938C240.375 313.349 240.079 313.933 239.963 314.689H245.249Z" fill="#8593A3"/>
<path d="M260.26 308.991C261.873 308.991 263.158 309.517 264.113 310.57C265.084 311.606 265.57 313.036 265.57 314.862V322.903H261.371V315.429C261.371 314.508 261.132 313.793 260.655 313.283C260.177 312.773 259.535 312.518 258.728 312.518C257.921 312.518 257.279 312.773 256.802 313.283C256.324 313.793 256.085 314.508 256.085 315.429V322.903H251.862V309.139H256.085V310.964C256.514 310.356 257.09 309.879 257.814 309.534C258.539 309.172 259.354 308.991 260.26 308.991Z" fill="#8593A3"/>
<path d="M276.249 319.326V322.903H274.1C272.568 322.903 271.375 322.533 270.518 321.793C269.662 321.037 269.234 319.812 269.234 318.118V312.642H267.554V309.139H269.234V305.784H273.458V309.139H276.224V312.642H273.458V318.167C273.458 318.578 273.556 318.874 273.754 319.055C273.952 319.236 274.281 319.326 274.742 319.326H276.249Z" fill="#8593A3"/>
</g>
<g opacity="0.3">
<path d="M841.039 344.034C841.039 342.445 841.359 341.056 841.999 339.868C842.658 338.681 843.564 337.767 844.716 337.128C845.887 336.488 847.223 336.168 848.723 336.168C850.644 336.168 852.245 336.671 853.526 337.676C854.825 338.681 855.676 340.097 856.078 341.924H851.083C850.663 340.754 849.848 340.17 848.641 340.17C847.781 340.17 847.095 340.508 846.583 341.184C846.07 341.842 845.814 342.792 845.814 344.034C845.814 345.277 846.07 346.236 846.583 346.912C847.095 347.57 847.781 347.899 848.641 347.899C849.848 347.899 850.663 347.314 851.083 346.145H856.078C855.676 347.935 854.825 349.342 853.526 350.365C852.227 351.389 850.626 351.9 848.723 351.9C847.223 351.9 845.887 351.58 844.716 350.941C843.564 350.301 842.658 349.388 841.999 348.2C841.359 347.012 841.039 345.624 841.039 344.034Z" fill="#8593A3"/>
<path d="M873.779 336.388V351.681H869.086V349.598C868.61 350.274 867.961 350.822 867.138 351.242C866.333 351.644 865.436 351.845 864.448 351.845C863.277 351.845 862.243 351.59 861.347 351.078C860.45 350.548 859.755 349.79 859.261 348.803C858.767 347.816 858.52 346.656 858.52 345.322V336.388H863.186V344.692C863.186 345.715 863.451 346.51 863.982 347.076C864.512 347.643 865.226 347.926 866.122 347.926C867.037 347.926 867.76 347.643 868.29 347.076C868.821 346.51 869.086 345.715 869.086 344.692V336.388H873.779Z" fill="#8593A3"/>
<path d="M883.449 351.9C882.113 351.9 880.924 351.672 879.881 351.215C878.838 350.758 878.015 350.137 877.411 349.351C876.807 348.547 876.469 347.652 876.395 346.665H881.034C881.088 347.195 881.335 347.625 881.775 347.953C882.214 348.282 882.753 348.447 883.394 348.447C883.979 348.447 884.427 348.337 884.739 348.118C885.068 347.88 885.233 347.579 885.233 347.213C885.233 346.775 885.004 346.455 884.546 346.254C884.089 346.035 883.348 345.797 882.323 345.542C881.226 345.286 880.311 345.021 879.579 344.747C878.847 344.454 878.216 344.007 877.685 343.404C877.155 342.783 876.889 341.951 876.889 340.91C876.889 340.033 877.127 339.238 877.603 338.525C878.097 337.794 878.811 337.219 879.744 336.799C880.695 336.378 881.82 336.168 883.119 336.168C885.04 336.168 886.55 336.643 887.648 337.593C888.764 338.544 889.404 339.804 889.569 341.376H885.233C885.159 340.846 884.921 340.426 884.519 340.115C884.135 339.804 883.622 339.649 882.982 339.649C882.433 339.649 882.012 339.759 881.72 339.978C881.427 340.179 881.281 340.462 881.281 340.828C881.281 341.266 881.509 341.595 881.967 341.814C882.442 342.033 883.174 342.253 884.162 342.472C885.297 342.764 886.221 343.057 886.934 343.349C887.648 343.623 888.27 344.08 888.8 344.719C889.349 345.341 889.633 346.181 889.651 347.241C889.651 348.136 889.395 348.94 888.883 349.653C888.389 350.347 887.666 350.895 886.715 351.297C885.781 351.699 884.693 351.9 883.449 351.9Z" fill="#8593A3"/>
<path d="M901.126 347.707V351.681H898.738C897.037 351.681 895.71 351.27 894.759 350.448C893.808 349.607 893.332 348.246 893.332 346.364V340.279H891.466V336.388H893.332V332.66H898.025V336.388H901.099V340.279H898.025V346.419C898.025 346.875 898.135 347.204 898.354 347.405C898.574 347.606 898.94 347.707 899.452 347.707H901.126Z" fill="#8593A3"/>
<path d="M910.78 351.9C909.279 351.9 907.925 351.58 906.718 350.941C905.529 350.301 904.586 349.388 903.891 348.2C903.214 347.012 902.876 345.624 902.876 344.034C902.876 342.463 903.223 341.083 903.919 339.896C904.614 338.69 905.565 337.767 906.773 337.128C907.98 336.488 909.334 336.168 910.835 336.168C912.335 336.168 913.689 336.488 914.896 337.128C916.104 337.767 917.055 338.69 917.751 339.896C918.446 341.083 918.793 342.463 918.793 344.034C918.793 345.606 918.437 346.994 917.723 348.2C917.028 349.388 916.067 350.301 914.841 350.941C913.634 351.58 912.28 351.9 910.78 351.9ZM910.78 347.844C911.676 347.844 912.435 347.515 913.058 346.857C913.698 346.199 914.018 345.258 914.018 344.034C914.018 342.81 913.707 341.869 913.085 341.211C912.481 340.553 911.731 340.225 910.835 340.225C909.92 340.225 909.16 340.553 908.557 341.211C907.953 341.851 907.651 342.792 907.651 344.034C907.651 345.258 907.944 346.199 908.529 346.857C909.133 347.515 909.883 347.844 910.78 347.844Z" fill="#8593A3"/>
<path d="M940.892 336.223C942.795 336.223 944.304 336.799 945.421 337.95C946.555 339.101 947.122 340.7 947.122 342.746V351.681H942.457V343.376C942.457 342.39 942.191 341.631 941.661 341.102C941.148 340.553 940.435 340.279 939.52 340.279C938.605 340.279 937.882 340.553 937.352 341.102C936.84 341.631 936.583 342.39 936.583 343.376V351.681H931.918V343.376C931.918 342.39 931.653 341.631 931.122 341.102C930.61 340.553 929.896 340.279 928.981 340.279C928.066 340.279 927.344 340.553 926.813 341.102C926.301 341.631 926.045 342.39 926.045 343.376V351.681H921.352V336.388H926.045V338.306C926.52 337.667 927.143 337.164 927.911 336.799C928.679 336.415 929.548 336.223 930.518 336.223C931.671 336.223 932.695 336.47 933.592 336.963C934.507 337.456 935.22 338.16 935.733 339.073C936.263 338.233 936.986 337.548 937.901 337.018C938.816 336.488 939.813 336.223 940.892 336.223Z" fill="#8593A3"/>
<path d="M952.833 334.798C952.01 334.798 951.333 334.56 950.802 334.085C950.29 333.592 950.034 332.989 950.034 332.276C950.034 331.546 950.29 330.943 950.802 330.468C951.333 329.974 952.01 329.728 952.833 329.728C953.638 329.728 954.297 329.974 954.809 330.468C955.34 330.943 955.605 331.546 955.605 332.276C955.605 332.989 955.34 333.592 954.809 334.085C954.297 334.56 953.638 334.798 952.833 334.798ZM955.166 336.388V351.681H950.473V336.388H955.166Z" fill="#8593A3"/>
<path d="M963.027 347.816H969.668V351.681H957.785V347.953L964.152 340.252H957.84V336.388H969.531V340.115L963.027 347.816Z" fill="#8593A3"/>
<path d="M986.755 343.788C986.755 344.226 986.727 344.683 986.672 345.158H976.051C976.125 346.108 976.427 346.839 976.957 347.351C977.506 347.844 978.174 348.091 978.961 348.091C980.132 348.091 980.946 347.597 981.403 346.611H986.398C986.142 347.615 985.675 348.52 984.998 349.324C984.34 350.128 983.507 350.758 982.501 351.215C981.495 351.672 980.369 351.9 979.125 351.9C977.625 351.9 976.289 351.58 975.118 350.941C973.947 350.301 973.033 349.388 972.374 348.2C971.715 347.012 971.386 345.624 971.386 344.034C971.386 342.445 971.706 341.056 972.346 339.868C973.005 338.681 973.92 337.767 975.091 337.128C976.262 336.488 977.607 336.168 979.125 336.168C980.607 336.168 981.925 336.479 983.077 337.1C984.23 337.721 985.126 338.608 985.767 339.759C986.425 340.91 986.755 342.253 986.755 343.788ZM981.952 342.554C981.952 341.75 981.678 341.111 981.129 340.636C980.58 340.161 979.894 339.923 979.07 339.923C978.284 339.923 977.616 340.151 977.067 340.608C976.536 341.065 976.207 341.714 976.079 342.554H981.952Z" fill="#8593A3"/>
</g>
<g opacity="0.3">
<path d="M361 380.219C361 378.073 361.402 376.189 362.205 374.567C363.033 372.945 364.15 371.697 365.556 370.824C366.962 369.95 368.531 369.513 370.263 369.513C371.644 369.513 372.899 369.8 374.029 370.374C375.184 370.948 376.087 371.722 376.74 372.695V363H383.179V390.701H376.74V387.706C376.137 388.704 375.271 389.503 374.142 390.102C373.037 390.701 371.744 391 370.263 391C368.531 391 366.962 390.563 365.556 389.69C364.15 388.791 363.033 387.531 362.205 385.909C361.402 384.262 361 382.365 361 380.219ZM376.74 380.257C376.74 378.66 376.288 377.399 375.384 376.476C374.506 375.553 373.426 375.091 372.146 375.091C370.866 375.091 369.774 375.553 368.87 376.476C367.991 377.374 367.552 378.622 367.552 380.219C367.552 381.816 367.991 383.089 368.87 384.037C369.774 384.961 370.866 385.422 372.146 385.422C373.426 385.422 374.506 384.961 375.384 384.037C376.288 383.114 376.74 381.854 376.74 380.257Z" fill="#8593A3"/>
<path d="M397.496 391C395.437 391 393.58 390.563 391.923 389.69C390.291 388.816 388.998 387.569 388.044 385.947C387.116 384.324 386.651 382.428 386.651 380.257C386.651 378.111 387.128 376.226 388.082 374.604C389.036 372.957 390.341 371.697 391.998 370.824C393.655 369.95 395.513 369.513 397.571 369.513C399.63 369.513 401.487 369.95 403.144 370.824C404.801 371.697 406.107 372.957 407.06 374.604C408.014 376.226 408.491 378.111 408.491 380.257C408.491 382.403 408.002 384.299 407.023 385.947C406.069 387.569 404.751 388.816 403.069 389.69C401.412 390.563 399.554 391 397.496 391ZM397.496 385.46C398.726 385.46 399.768 385.011 400.621 384.112C401.5 383.214 401.939 381.929 401.939 380.257C401.939 378.585 401.513 377.299 400.659 376.401C399.831 375.503 398.801 375.053 397.571 375.053C396.316 375.053 395.274 375.503 394.446 376.401C393.617 377.275 393.203 378.56 393.203 380.257C393.203 381.929 393.605 383.214 394.408 384.112C395.237 385.011 396.266 385.46 397.496 385.46Z" fill="#8593A3"/>
<path d="M442.163 369.813L436.478 390.701H429.361L426.047 377.15L422.62 390.701H415.541L409.818 369.813H416.257L419.231 384.749L422.771 369.813H429.587L433.164 384.674L436.101 369.813H442.163Z" fill="#8593A3"/>
<path d="M457.516 369.588C459.976 369.588 461.934 370.387 463.39 371.984C464.871 373.556 465.612 375.727 465.612 378.497V390.701H459.21V379.358C459.21 377.961 458.846 376.875 458.118 376.102C457.39 375.328 456.411 374.941 455.181 374.941C453.951 374.941 452.972 375.328 452.244 376.102C451.516 376.875 451.152 377.961 451.152 379.358V390.701H444.713V369.813H451.152V372.583C451.805 371.66 452.684 370.936 453.788 370.412C454.893 369.863 456.135 369.588 457.516 369.588Z" fill="#8593A3"/>
<path d="M476.62 363V390.701H470.181V363H476.62Z" fill="#8593A3"/>
<path d="M490.944 391C488.886 391 487.028 390.563 485.372 389.69C483.74 388.816 482.447 387.569 481.493 385.947C480.564 384.324 480.1 382.428 480.1 380.257C480.1 378.111 480.577 376.226 481.531 374.604C482.485 372.957 483.79 371.697 485.447 370.824C487.104 369.95 488.961 369.513 491.02 369.513C493.078 369.513 494.936 369.95 496.593 370.824C498.25 371.697 499.555 372.957 500.509 374.604C501.463 376.226 501.94 378.111 501.94 380.257C501.94 382.403 501.45 384.299 500.471 385.947C499.517 387.569 498.199 388.816 496.517 389.69C494.861 390.563 493.003 391 490.944 391ZM490.944 385.46C492.175 385.46 493.216 385.011 494.07 384.112C494.949 383.214 495.388 381.929 495.388 380.257C495.388 378.585 494.961 377.299 494.108 376.401C493.279 375.503 492.25 375.053 491.02 375.053C489.765 375.053 488.723 375.503 487.894 376.401C487.066 377.275 486.652 378.56 486.652 380.257C486.652 381.929 487.053 383.214 487.857 384.112C488.685 385.011 489.714 385.46 490.944 385.46Z" fill="#8593A3"/>
<path d="M504.17 380.219C504.17 378.073 504.571 376.189 505.375 374.567C506.203 372.945 507.32 371.697 508.726 370.824C510.132 369.95 511.701 369.513 513.433 369.513C514.914 369.513 516.207 369.813 517.311 370.412C518.441 371.011 519.307 371.797 519.91 372.77V369.813H526.349V390.701H519.91V387.743C519.282 388.717 518.403 389.503 517.274 390.102C516.169 390.701 514.876 391 513.395 391C511.688 391 510.132 390.563 508.726 389.69C507.32 388.791 506.203 387.531 505.375 385.909C504.571 384.262 504.17 382.365 504.17 380.219ZM519.91 380.257C519.91 378.66 519.458 377.399 518.554 376.476C517.675 375.553 516.596 375.091 515.316 375.091C514.035 375.091 512.943 375.553 512.04 376.476C511.161 377.374 510.722 378.622 510.722 380.219C510.722 381.816 511.161 383.089 512.04 384.037C512.943 384.961 514.035 385.422 515.316 385.422C516.596 385.422 517.675 384.961 518.554 384.037C519.458 383.114 519.91 381.854 519.91 380.257Z" fill="#8593A3"/>
<path d="M529.821 380.219C529.821 378.073 530.223 376.189 531.026 374.567C531.854 372.945 532.971 371.697 534.377 370.824C535.783 369.95 537.352 369.513 539.084 369.513C540.465 369.513 541.72 369.8 542.85 370.374C544.005 370.948 544.908 371.722 545.561 372.695V363H552V390.701H545.561V387.706C544.958 388.704 544.092 389.503 542.963 390.102C541.858 390.701 540.565 391 539.084 391C537.352 391 535.783 390.563 534.377 389.69C532.971 388.791 531.854 387.531 531.026 385.909C530.223 384.262 529.821 382.365 529.821 380.219ZM545.561 380.257C545.561 378.66 545.109 377.399 544.205 376.476C543.327 375.553 542.247 375.091 540.967 375.091C539.687 375.091 538.595 375.553 537.691 376.476C536.812 377.374 536.373 378.622 536.373 380.219C536.373 381.816 536.812 383.089 537.691 384.037C538.595 384.961 539.687 385.422 540.967 385.422C542.247 385.422 543.327 384.961 544.205 384.037C545.109 383.114 545.561 381.854 545.561 380.257Z" fill="#8593A3"/>
</g>
<g opacity="0.3">
<path d="M549.76 83.8118C549.06 83.8118 548.485 83.6099 548.034 83.2061C547.598 82.7868 547.381 82.2743 547.381 81.6686C547.381 81.0473 547.598 80.5348 548.034 80.131C548.485 79.7117 549.06 79.502 549.76 79.502C550.444 79.502 551.004 79.7117 551.44 80.131C551.891 80.5348 552.116 81.0473 552.116 81.6686C552.116 82.2743 551.891 82.7868 551.44 83.2061C551.004 83.6099 550.444 83.8118 549.76 83.8118ZM551.743 85.163V98.1623H547.754V85.163H551.743Z" fill="#8593A3"/>
<path d="M571.301 85.0232C572.919 85.0232 574.202 85.5125 575.151 86.4909C576.115 87.4693 576.597 88.8283 576.597 90.5678V98.1623H572.631V91.1036C572.631 90.2649 572.406 89.6204 571.955 89.17C571.519 88.7041 570.913 88.4711 570.135 88.4711C569.357 88.4711 568.743 88.7041 568.292 89.17C567.857 89.6204 567.639 90.2649 567.639 91.1036V98.1623H563.673V91.1036C563.673 90.2649 563.448 89.6204 562.997 89.17C562.561 88.7041 561.955 88.4711 561.177 88.4711C560.4 88.4711 559.785 88.7041 559.334 89.17C558.899 89.6204 558.681 90.2649 558.681 91.1036V98.1623H554.692V85.163H558.681V86.7938C559.085 86.2502 559.614 85.8231 560.267 85.5125C560.921 85.1863 561.659 85.0232 562.484 85.0232C563.463 85.0232 564.334 85.2329 565.096 85.6522C565.874 86.0716 566.48 86.6695 566.916 87.4461C567.367 86.7316 567.981 86.1492 568.759 85.6988C569.536 85.2484 570.384 85.0232 571.301 85.0232Z" fill="#8593A3"/>
<path d="M583.434 87.0034C583.823 86.3977 584.359 85.9085 585.044 85.5358C585.728 85.163 586.529 84.9766 587.446 84.9766C588.52 84.9766 589.492 85.2484 590.362 85.792C591.233 86.3356 591.918 87.1121 592.415 88.1216C592.929 89.1312 593.185 90.3037 593.185 91.6394C593.185 92.975 592.929 94.1554 592.415 95.1804C591.918 96.1899 591.233 96.9742 590.362 97.5333C589.492 98.0769 588.52 98.3487 587.446 98.3487C586.544 98.3487 585.744 98.1623 585.044 97.7896C584.359 97.4169 583.823 96.9354 583.434 96.3452V104.359H579.445V85.163H583.434V87.0034ZM589.126 91.6394C589.126 90.6454 588.846 89.8689 588.286 89.3098C587.742 88.7351 587.065 88.4478 586.257 88.4478C585.464 88.4478 584.787 88.7351 584.227 89.3098C583.683 89.8844 583.411 90.6687 583.411 91.6627C583.411 92.6567 583.683 93.441 584.227 94.0156C584.787 94.5902 585.464 94.8776 586.257 94.8776C587.05 94.8776 587.726 94.5902 588.286 94.0156C588.846 93.4254 589.126 92.6334 589.126 91.6394Z" fill="#8593A3"/>
<path d="M601.261 98.3487C599.986 98.3487 598.835 98.0769 597.809 97.5333C596.798 96.9898 595.997 96.2132 595.406 95.2037C594.831 94.1942 594.543 93.0139 594.543 91.6627C594.543 90.327 594.839 89.1544 595.43 88.1449C596.02 87.1199 596.829 86.3356 597.856 85.792C598.882 85.2484 600.033 84.9766 601.308 84.9766C602.583 84.9766 603.734 85.2484 604.761 85.792C605.787 86.3356 606.596 87.1199 607.187 88.1449C607.778 89.1544 608.073 90.327 608.073 91.6627C608.073 92.9983 607.77 94.1787 607.163 95.2037C606.572 96.2132 605.756 96.9898 604.714 97.5333C603.688 98.0769 602.537 98.3487 601.261 98.3487ZM601.261 94.9009C602.023 94.9009 602.669 94.6213 603.198 94.0622C603.742 93.5031 604.014 92.7032 604.014 91.6627C604.014 90.6221 603.75 89.8223 603.221 89.2632C602.708 88.7041 602.07 88.4245 601.308 88.4245C600.531 88.4245 599.885 88.7041 599.372 89.2632C598.859 89.8067 598.602 90.6066 598.602 91.6627C598.602 92.7032 598.851 93.5031 599.349 94.0622C599.862 94.6213 600.499 94.9009 601.261 94.9009Z" fill="#8593A3"/>
<path d="M614.237 87.3296C614.703 86.6151 615.287 86.056 615.986 85.6522C616.686 85.2329 617.464 85.0232 618.319 85.0232V89.2399H617.223C616.227 89.2399 615.481 89.4573 614.983 89.8922C614.486 90.3115 614.237 91.057 614.237 92.1286V98.1623H610.248V85.163H614.237V87.3296Z" fill="#8593A3"/>
<path d="M627.539 94.7844V98.1623H625.51C624.063 98.1623 622.936 97.8129 622.127 97.114C621.318 96.3996 620.914 95.2425 620.914 93.6429V88.4711H619.328V85.163H620.914V81.9947H624.903V85.163H627.516V88.4711H624.903V93.6895C624.903 94.0777 624.996 94.3573 625.183 94.5281C625.37 94.699 625.681 94.7844 626.116 94.7844H627.539Z" fill="#8593A3"/>
</g>
<g opacity="0.3">
<path d="M810.031 240.242C809.207 240.242 808.53 240.005 808 239.53C807.487 239.036 807.231 238.433 807.231 237.721C807.231 236.99 807.487 236.387 808 235.912C808.53 235.419 809.207 235.172 810.031 235.172C810.836 235.172 811.494 235.419 812.007 235.912C812.537 236.387 812.802 236.99 812.802 237.721C812.802 238.433 812.537 239.036 812.007 239.53C811.494 240.005 810.836 240.242 810.031 240.242ZM812.363 241.832V257.125H807.67V241.832H812.363Z" fill="#8593A3"/>
<path d="M835.373 241.668C837.276 241.668 838.786 242.243 839.902 243.394C841.036 244.545 841.603 246.144 841.603 248.19V257.125H836.938V248.821C836.938 247.834 836.672 247.076 836.142 246.546C835.629 245.998 834.916 245.724 834.001 245.724C833.086 245.724 832.364 245.998 831.833 246.546C831.321 247.076 831.065 247.834 831.065 248.821V257.125H826.399V248.821C826.399 247.834 826.134 247.076 825.603 246.546C825.091 245.998 824.377 245.724 823.462 245.724C822.548 245.724 821.825 245.998 821.294 246.546C820.782 247.076 820.526 247.834 820.526 248.821V257.125H815.833V241.832H820.526V243.75C821.002 243.111 821.624 242.609 822.392 242.243C823.161 241.859 824.03 241.668 824.999 241.668C826.152 241.668 827.177 241.914 828.073 242.408C828.988 242.901 829.701 243.604 830.214 244.518C830.744 243.677 831.467 242.992 832.382 242.462C833.297 241.932 834.294 241.668 835.373 241.668Z" fill="#8593A3"/>
<path d="M849.647 243.997C850.104 243.285 850.736 242.709 851.541 242.27C852.346 241.832 853.288 241.613 854.367 241.613C855.63 241.613 856.773 241.932 857.798 242.572C858.823 243.211 859.628 244.125 860.213 245.313C860.817 246.5 861.119 247.88 861.119 249.451C861.119 251.023 860.817 252.411 860.213 253.617C859.628 254.805 858.823 255.728 857.798 256.385C856.773 257.025 855.63 257.345 854.367 257.345C853.306 257.345 852.364 257.125 851.541 256.687C850.736 256.248 850.104 255.682 849.647 254.988V264.416H844.954V241.832H849.647V243.997ZM856.343 249.451C856.343 248.282 856.014 247.368 855.355 246.71C854.715 246.034 853.919 245.696 852.968 245.696C852.035 245.696 851.239 246.034 850.58 246.71C849.94 247.387 849.62 248.309 849.62 249.479C849.62 250.648 849.94 251.571 850.58 252.247C851.239 252.923 852.035 253.261 852.968 253.261C853.901 253.261 854.697 252.923 855.355 252.247C856.014 251.552 856.343 250.621 856.343 249.451Z" fill="#8593A3"/>
<path d="M870.62 257.345C869.12 257.345 867.766 257.025 866.559 256.385C865.369 255.746 864.427 254.832 863.732 253.645C863.055 252.457 862.716 251.068 862.716 249.479C862.716 247.907 863.064 246.528 863.759 245.34C864.454 244.134 865.406 243.211 866.613 242.572C867.821 241.932 869.175 241.613 870.675 241.613C872.175 241.613 873.529 241.932 874.737 242.572C875.945 243.211 876.896 244.134 877.591 245.34C878.286 246.528 878.634 247.907 878.634 249.479C878.634 251.05 878.277 252.439 877.564 253.645C876.868 254.832 875.908 255.746 874.682 256.385C873.475 257.025 872.121 257.345 870.62 257.345ZM870.62 253.288C871.517 253.288 872.276 252.959 872.898 252.302C873.539 251.644 873.859 250.703 873.859 249.479C873.859 248.254 873.548 247.313 872.926 246.656C872.322 245.998 871.572 245.669 870.675 245.669C869.76 245.669 869.001 245.998 868.397 246.656C867.794 247.295 867.492 248.236 867.492 249.479C867.492 250.703 867.784 251.644 868.37 252.302C868.974 252.959 869.724 253.288 870.62 253.288Z" fill="#8593A3"/>
<path d="M885.885 244.381C886.434 243.54 887.12 242.883 887.944 242.408C888.767 241.914 889.682 241.668 890.688 241.668V246.628H889.398C888.227 246.628 887.349 246.884 886.764 247.396C886.178 247.889 885.885 248.766 885.885 250.027V257.125H881.192V241.832H885.885V244.381Z" fill="#8593A3"/>
<path d="M901.535 253.151V257.125H899.147C897.446 257.125 896.119 256.714 895.168 255.892C894.217 255.051 893.741 253.69 893.741 251.808V245.724H891.875V241.832H893.741V238.105H898.434V241.832H901.508V245.724H898.434V251.863C898.434 252.32 898.544 252.649 898.763 252.85C898.983 253.051 899.349 253.151 899.861 253.151H901.535Z" fill="#8593A3"/>
</g>
<g opacity="0.3">
<path d="M316.907 342.664C316.907 341.074 317.227 339.686 317.868 338.498C318.526 337.31 319.432 336.397 320.585 335.757C321.756 335.118 323.091 334.798 324.591 334.798C326.513 334.798 328.113 335.3 329.394 336.305C330.693 337.31 331.544 338.726 331.947 340.553H326.952C326.531 339.384 325.717 338.799 324.509 338.799C323.649 338.799 322.963 339.137 322.451 339.813C321.938 340.471 321.682 341.421 321.682 342.664C321.682 343.906 321.938 344.866 322.451 345.542C322.963 346.199 323.649 346.528 324.509 346.528C325.717 346.528 326.531 345.944 326.952 344.774H331.947C331.544 346.565 330.693 347.972 329.394 348.995C328.095 350.018 326.494 350.53 324.591 350.53C323.091 350.53 321.756 350.21 320.585 349.57C319.432 348.931 318.526 348.017 317.868 346.83C317.227 345.642 316.907 344.253 316.907 342.664Z" fill="#8593A3"/>
<path d="M341.496 350.53C339.996 350.53 338.642 350.21 337.435 349.57C336.245 348.931 335.303 348.017 334.608 346.83C333.931 345.642 333.592 344.253 333.592 342.664C333.592 341.092 333.94 339.713 334.635 338.525C335.33 337.319 336.282 336.397 337.489 335.757C338.697 335.118 340.051 334.798 341.551 334.798C343.052 334.798 344.405 335.118 345.613 335.757C346.821 336.397 347.772 337.319 348.467 338.525C349.162 339.713 349.51 341.092 349.51 342.664C349.51 344.235 349.153 345.624 348.44 346.83C347.745 348.017 346.784 348.931 345.558 349.57C344.351 350.21 342.997 350.53 341.496 350.53ZM341.496 346.473C342.393 346.473 343.152 346.145 343.774 345.487C344.415 344.829 344.735 343.888 344.735 342.664C344.735 341.44 344.424 340.499 343.802 339.841C343.198 339.183 342.448 338.854 341.551 338.854C340.636 338.854 339.877 339.183 339.273 339.841C338.67 340.48 338.368 341.421 338.368 342.664C338.368 343.888 338.66 344.829 339.246 345.487C339.85 346.145 340.6 346.473 341.496 346.473Z" fill="#8593A3"/>
<path d="M356.761 330.029V350.31H352.068V330.029H356.761Z" fill="#8593A3"/>
<path d="M367.202 350.53C365.702 350.53 364.348 350.21 363.14 349.57C361.951 348.931 361.009 348.017 360.313 346.83C359.636 345.642 359.298 344.253 359.298 342.664C359.298 341.092 359.646 339.713 360.341 338.525C361.036 337.319 361.987 336.397 363.195 335.757C364.403 335.118 365.757 334.798 367.257 334.798C368.757 334.798 370.111 335.118 371.319 335.757C372.526 336.397 373.478 337.319 374.173 338.525C374.868 339.713 375.216 341.092 375.216 342.664C375.216 344.235 374.859 345.624 374.145 346.83C373.45 348.017 372.49 348.931 371.264 349.57C370.056 350.21 368.702 350.53 367.202 350.53ZM367.202 346.473C368.098 346.473 368.858 346.145 369.48 345.487C370.12 344.829 370.44 343.888 370.44 342.664C370.44 341.44 370.129 340.499 369.507 339.841C368.903 339.183 368.153 338.854 367.257 338.854C366.342 338.854 365.583 339.183 364.979 339.841C364.375 340.48 364.073 341.421 364.073 342.664C364.073 343.888 364.366 344.829 364.951 345.487C365.555 346.145 366.305 346.473 367.202 346.473Z" fill="#8593A3"/>
<path d="M382.467 337.566C383.016 336.726 383.702 336.068 384.525 335.593C385.349 335.099 386.264 334.853 387.27 334.853V339.813H385.98C384.809 339.813 383.931 340.069 383.345 340.581C382.76 341.074 382.467 341.951 382.467 343.212V350.31H377.774V335.017H382.467V337.566Z" fill="#8593A3"/>
</g>
<g opacity="0.3">
<path d="M562.052 139.065H559.275V151.607H554.113V139.065H552.241V134.784H554.113V134.302C554.113 132.232 554.707 130.664 555.894 129.599C557.081 128.513 558.822 127.971 561.117 127.971C561.499 127.971 561.781 127.981 561.962 128.001V132.372C560.976 132.312 560.281 132.453 559.879 132.794C559.476 133.136 559.275 133.749 559.275 134.633V134.784H562.052V139.065Z" fill="#8593A3"/>
<path d="M572.222 151.848C570.571 151.848 569.082 151.496 567.754 150.793C566.446 150.089 565.409 149.084 564.644 147.778C563.9 146.472 563.527 144.944 563.527 143.195C563.527 141.467 563.91 139.95 564.674 138.643C565.439 137.317 566.486 136.302 567.814 135.598C569.142 134.895 570.632 134.543 572.282 134.543C573.932 134.543 575.422 134.895 576.75 135.598C578.078 136.302 579.125 137.317 579.89 138.643C580.654 139.95 581.037 141.467 581.037 143.195C581.037 144.924 580.644 146.451 579.859 147.778C579.095 149.084 578.038 150.089 576.69 150.793C575.361 151.496 573.872 151.848 572.222 151.848ZM572.222 147.386C573.208 147.386 574.043 147.024 574.727 146.301C575.432 145.577 575.784 144.542 575.784 143.195C575.784 141.849 575.442 140.814 574.758 140.09C574.093 139.367 573.268 139.005 572.282 139.005C571.276 139.005 570.44 139.367 569.776 140.09C569.112 140.794 568.78 141.829 568.78 143.195C568.78 144.542 569.102 145.577 569.746 146.301C570.41 147.024 571.235 147.386 572.222 147.386Z" fill="#8593A3"/>
<path d="M594.115 134.603C596.088 134.603 597.657 135.246 598.825 136.533C600.012 137.799 600.606 139.548 600.606 141.778V151.607H595.474V142.472C595.474 141.346 595.182 140.472 594.598 139.849C594.015 139.226 593.23 138.914 592.243 138.914C591.257 138.914 590.472 139.226 589.889 139.849C589.305 140.472 589.013 141.346 589.013 142.472V151.607H583.851V134.784H589.013V137.015C589.537 136.271 590.241 135.689 591.126 135.266C592.012 134.824 593.008 134.603 594.115 134.603Z" fill="#8593A3"/>
<path d="M613.657 147.235V151.607H611.031C609.159 151.607 607.7 151.155 606.653 150.25C605.607 149.326 605.084 147.828 605.084 145.758V139.065H603.031V134.784H605.084V130.684H610.246V134.784H613.627V139.065H610.246V145.818C610.246 146.321 610.367 146.683 610.608 146.904C610.85 147.125 611.252 147.235 611.816 147.235H613.657Z" fill="#8593A3"/>
</g>
<g opacity="0.3">
<path d="M15.2004 136.105H11.1606V154.348H3.65181V136.105H0.929321V129.878H3.65181V129.177C3.65181 126.165 4.5154 123.885 6.24257 122.336C7.96974 120.757 10.5019 119.968 13.8392 119.968C14.3954 119.968 14.8052 119.982 15.0687 120.012V126.37C13.6343 126.282 12.6243 126.487 12.0388 126.984C11.4534 127.481 11.1606 128.373 11.1606 129.659V129.878H15.2004V136.105Z" fill="#8593A3"/>
<path d="M26.3473 133.956C27.2256 132.612 28.3233 131.559 29.6407 130.799C30.958 130.01 32.4217 129.615 34.0318 129.615V137.552H31.968C30.0944 137.552 28.6893 137.962 27.7525 138.78C26.8157 139.569 26.3473 140.973 26.3473 142.99V154.348H18.8385V129.878H26.3473V133.956Z" fill="#8593A3"/>
<path d="M60.8279 141.718C60.8279 142.42 60.7839 143.151 60.6961 143.911H43.7025C43.8196 145.431 44.3026 146.6 45.1516 147.419C46.0298 148.208 47.0983 148.603 48.3571 148.603C50.2306 148.603 51.5333 147.814 52.2652 146.235H60.257C59.8472 147.843 59.1007 149.29 58.0175 150.576C56.9637 151.863 55.6317 152.871 54.0216 153.602C52.4116 154.333 50.6112 154.698 48.6206 154.698C46.2201 154.698 44.0831 154.187 42.2095 153.164C40.336 152.14 38.8723 150.679 37.8184 148.778C36.7646 146.878 36.2376 144.656 36.2376 142.113C36.2376 139.569 36.7499 137.348 37.7745 135.447C38.8284 133.547 40.2921 132.085 42.1656 131.062C44.0392 130.039 46.1908 129.527 48.6206 129.527C50.9918 129.527 53.0995 130.024 54.9438 131.018C56.788 132.012 58.2225 133.43 59.2471 135.272C60.3009 137.114 60.8279 139.262 60.8279 141.718ZM53.1434 139.745C53.1434 138.459 52.7043 137.435 51.8261 136.675C50.9479 135.915 49.8501 135.535 48.5327 135.535C47.274 135.535 46.2055 135.901 45.3272 136.631C44.4783 137.362 43.9513 138.4 43.7464 139.745H53.1434Z" fill="#8593A3"/>
<path d="M63.4059 142.157C63.4059 139.73 63.9036 137.567 64.8989 135.667C65.9235 133.766 67.2847 132.29 68.9826 131.238C70.7098 130.156 72.5833 129.615 74.6033 129.615C76.1548 129.615 77.5453 129.893 78.7748 130.448C80.0043 130.974 80.9996 131.72 81.7608 132.685V129.878H89.2696V166.012H81.7608V151.278C80.9118 152.301 79.8726 153.12 78.6431 153.734C77.4428 154.348 76.067 154.654 74.5154 154.654C72.5248 154.654 70.6805 154.128 68.9826 153.076C67.2847 152.023 65.9235 150.547 64.8989 148.647C63.9036 146.747 63.4059 144.583 63.4059 142.157ZM81.7608 142.113C81.7608 140.797 81.4973 139.701 80.9704 138.824C80.4727 137.918 79.814 137.245 78.9944 136.807C78.1747 136.339 77.3111 136.105 76.4036 136.105C75.5254 136.105 74.6764 136.339 73.8568 136.807C73.0371 137.245 72.3638 137.918 71.8369 138.824C71.3099 139.73 71.0465 140.841 71.0465 142.157C71.0465 143.472 71.3099 144.583 71.8369 145.489C72.3638 146.366 73.0371 147.039 73.8568 147.507C74.6764 147.945 75.5254 148.164 76.4036 148.164C77.2818 148.164 78.1308 147.945 78.9505 147.507C79.7994 147.039 80.4727 146.352 80.9704 145.446C81.4973 144.539 81.7608 143.428 81.7608 142.113Z" fill="#8593A3"/>
<path d="M119.007 129.878V154.348H111.498V151.015C110.737 152.096 109.697 152.973 108.38 153.646C107.092 154.289 105.658 154.611 104.077 154.611C102.203 154.611 100.549 154.201 99.1149 153.383C97.6805 152.535 96.5681 151.322 95.7777 149.743C94.9873 148.164 94.5921 146.308 94.5921 144.174V129.878H102.057V143.165C102.057 144.802 102.481 146.074 103.33 146.98C104.179 147.887 105.321 148.34 106.755 148.34C108.219 148.34 109.375 147.887 110.224 146.98C111.073 146.074 111.498 144.802 111.498 143.165V129.878H119.007Z" fill="#8593A3"/>
<path d="M147.607 141.718C147.607 142.42 147.563 143.151 147.475 143.911H130.482C130.599 145.431 131.082 146.6 131.931 147.419C132.809 148.208 133.878 148.603 135.136 148.603C137.01 148.603 138.313 147.814 139.045 146.235H147.036C146.627 147.843 145.88 149.29 144.797 150.576C143.743 151.863 142.411 152.871 140.801 153.602C139.191 154.333 137.391 154.698 135.4 154.698C132.999 154.698 130.862 154.187 128.989 153.164C127.115 152.14 125.652 150.679 124.598 148.778C123.544 146.878 123.017 144.656 123.017 142.113C123.017 139.569 123.529 137.348 124.554 135.447C125.608 133.547 127.071 132.085 128.945 131.062C130.819 130.039 132.97 129.527 135.4 129.527C137.771 129.527 139.879 130.024 141.723 131.018C143.567 132.012 145.002 133.43 146.026 135.272C147.08 137.114 147.607 139.262 147.607 141.718ZM139.923 139.745C139.923 138.459 139.484 137.435 138.605 136.675C137.727 135.915 136.629 135.535 135.312 135.535C134.053 135.535 132.985 135.901 132.107 136.631C131.258 137.362 130.731 138.4 130.526 139.745H139.923Z" fill="#8593A3"/>
<path d="M166.608 129.615C169.477 129.615 171.76 130.551 173.458 132.422C175.185 134.263 176.049 136.807 176.049 140.052V154.348H168.584V141.06C168.584 139.423 168.16 138.152 167.311 137.245C166.462 136.339 165.32 135.886 163.886 135.886C162.451 135.886 161.309 136.339 160.46 137.245C159.612 138.152 159.187 139.423 159.187 141.06V154.348H151.678V129.878H159.187V133.123C159.948 132.042 160.973 131.194 162.261 130.58C163.549 129.937 164.998 129.615 166.608 129.615Z" fill="#8593A3"/>
<path d="M179.884 142.113C179.884 139.569 180.396 137.348 181.42 135.447C182.474 133.547 183.923 132.085 185.768 131.062C187.641 130.039 189.778 129.527 192.179 129.527C195.252 129.527 197.814 130.331 199.863 131.939C201.942 133.547 203.303 135.813 203.947 138.736H195.955C195.282 136.865 193.979 135.93 192.047 135.93C190.671 135.93 189.573 136.471 188.754 137.552C187.934 138.605 187.524 140.125 187.524 142.113C187.524 144.101 187.934 145.636 188.754 146.717C189.573 147.77 190.671 148.296 192.047 148.296C193.979 148.296 195.282 147.36 195.955 145.489H203.947C203.303 148.354 201.942 150.605 199.863 152.243C197.785 153.88 195.223 154.698 192.179 154.698C189.778 154.698 187.641 154.187 185.768 153.164C183.923 152.14 182.474 150.679 181.42 148.778C180.396 146.878 179.884 144.656 179.884 142.113Z" fill="#8593A3"/>
<path d="M233.102 129.878L217.734 165.968H209.654L215.275 153.514L205.307 129.878H213.694L219.358 145.182L224.979 129.878H233.102Z" fill="#8593A3"/>
</g>
<g opacity="0.3">
<path d="M170.666 192.74H167.636V206.422H162.004V192.74H159.962V188.07H162.004V187.543C162.004 185.285 162.652 183.575 163.947 182.413C165.243 181.229 167.142 180.637 169.645 180.637C170.062 180.637 170.369 180.648 170.567 180.67V185.439C169.491 185.373 168.734 185.526 168.295 185.899C167.855 186.272 167.636 186.94 167.636 187.905V188.07H170.666V192.74Z" fill="#8593A3"/>
<path d="M179.026 191.128C179.685 190.12 180.508 189.33 181.496 188.76C182.484 188.168 183.582 187.872 184.789 187.872V193.825H183.241C181.836 193.825 180.782 194.132 180.08 194.746C179.377 195.338 179.026 196.391 179.026 197.903V206.422H173.394V188.07H179.026V191.128Z" fill="#8593A3"/>
<path d="M204.886 196.95C204.886 197.476 204.853 198.024 204.787 198.594H192.042C192.13 199.734 192.492 200.611 193.129 201.225C193.788 201.817 194.589 202.113 195.533 202.113C196.938 202.113 197.915 201.521 198.464 200.337H204.458C204.151 201.543 203.591 202.628 202.779 203.593C201.988 204.558 200.989 205.314 199.782 205.863C198.574 206.411 197.224 206.685 195.731 206.685C193.93 206.685 192.328 206.301 190.923 205.534C189.517 204.766 188.42 203.67 187.629 202.245C186.839 200.82 186.444 199.153 186.444 197.246C186.444 195.338 186.828 193.672 187.596 192.247C188.387 190.821 189.484 189.725 190.89 188.958C192.295 188.19 193.909 187.807 195.731 187.807C197.509 187.807 199.09 188.179 200.473 188.925C201.856 189.67 202.932 190.734 203.701 192.115C204.491 193.496 204.886 195.108 204.886 196.95ZM199.123 195.47C199.123 194.505 198.794 193.737 198.135 193.167C197.476 192.597 196.653 192.312 195.665 192.312C194.721 192.312 193.919 192.586 193.261 193.135C192.624 193.683 192.229 194.461 192.075 195.47H199.123Z" fill="#8593A3"/>
<path d="M225.263 196.95C225.263 197.476 225.23 198.024 225.164 198.594H212.419C212.506 199.734 212.869 200.611 213.505 201.225C214.164 201.817 214.965 202.113 215.909 202.113C217.315 202.113 218.292 201.521 218.841 200.337H224.834C224.527 201.543 223.967 202.628 223.155 203.593C222.364 204.558 221.365 205.314 220.158 205.863C218.95 206.411 217.6 206.685 216.107 206.685C214.307 206.685 212.704 206.301 211.299 205.534C209.894 204.766 208.796 203.67 208.005 202.245C207.215 200.82 206.82 199.153 206.82 197.246C206.82 195.338 207.204 193.672 207.973 192.247C208.763 190.821 209.861 189.725 211.266 188.958C212.671 188.19 214.285 187.807 216.107 187.807C217.885 187.807 219.466 188.179 220.849 188.925C222.233 189.67 223.308 190.734 224.077 192.115C224.867 193.496 225.263 195.108 225.263 196.95ZM219.499 195.47C219.499 194.505 219.17 193.737 218.511 193.167C217.853 192.597 217.029 192.312 216.041 192.312C215.097 192.312 214.296 192.586 213.637 193.135C213 193.683 212.605 194.461 212.451 195.47H219.499Z" fill="#8593A3"/>
</g>
<g opacity="0.3">
<path d="M686.041 344.171L673.608 390.051H658.047L650.802 360.287L643.31 390.051H627.831L615.316 344.171H629.395L635.9 376.978L643.639 344.171H658.541L666.363 376.813L672.785 344.171H686.041Z" fill="#8593A3"/>
<path d="M711.911 390.709C707.41 390.709 703.348 389.75 699.725 387.831C696.158 385.913 693.331 383.172 691.245 379.609C689.214 376.046 688.199 371.88 688.199 367.111C688.199 362.397 689.242 358.259 691.327 354.696C693.413 351.078 696.267 348.31 699.89 346.391C703.513 344.473 707.575 343.513 712.075 343.513C716.576 343.513 720.638 344.473 724.261 346.391C727.883 348.31 730.738 351.078 732.823 354.696C734.909 358.259 735.952 362.397 735.952 367.111C735.952 371.825 734.882 375.991 732.741 379.609C730.655 383.172 727.774 385.913 724.096 387.831C720.473 389.75 716.412 390.709 711.911 390.709ZM711.911 378.54C714.6 378.54 716.878 377.553 718.744 375.58C720.666 373.607 721.626 370.784 721.626 367.111C721.626 363.439 720.693 360.616 718.827 358.642C717.015 356.669 714.765 355.682 712.075 355.682C709.331 355.682 707.053 356.669 705.242 358.642C703.43 360.561 702.525 363.384 702.525 367.111C702.525 370.784 703.403 373.607 705.159 375.58C706.971 377.553 709.221 378.54 711.911 378.54Z" fill="#8593A3"/>
<path d="M757.089 351.818C758.735 349.296 760.794 347.323 763.264 345.898C765.734 344.418 768.478 343.678 771.497 343.678V358.56H767.627C764.114 358.56 761.48 359.328 759.723 360.862C757.967 362.342 757.089 364.973 757.089 368.756V390.051H743.01V344.171H757.089V351.818Z" fill="#8593A3"/>
<path d="M775.015 367.029C775.015 362.315 775.894 358.176 777.65 354.613C779.461 351.05 781.904 348.31 784.978 346.391C788.052 344.473 791.482 343.513 795.269 343.513C798.288 343.513 801.033 344.144 803.503 345.405C806.028 346.665 808.004 348.365 809.431 350.502V329.207H823.51V390.051H809.431V383.473C808.113 385.666 806.22 387.42 803.75 388.736C801.335 390.051 798.508 390.709 795.269 390.709C791.482 390.709 788.052 389.75 784.978 387.831C781.904 385.858 779.461 383.09 777.65 379.527C775.894 375.909 775.015 371.743 775.015 367.029ZM809.431 367.111C809.431 363.603 808.443 360.835 806.467 358.807C804.546 356.779 802.185 355.765 799.386 355.765C796.587 355.765 794.199 356.779 792.223 358.807C790.302 360.78 789.341 363.521 789.341 367.029C789.341 370.537 790.302 373.333 792.223 375.416C794.199 377.444 796.587 378.458 799.386 378.458C802.185 378.458 804.546 377.444 806.467 375.416C808.443 373.388 809.431 370.619 809.431 367.111Z" fill="#8593A3"/>
</g>
<g opacity="0.3">
<path d="M149.729 355.86C150.872 354.079 152.45 352.64 154.463 351.544C156.475 350.448 158.831 349.899 161.53 349.899C164.686 349.899 167.545 350.699 170.106 352.298C172.668 353.896 174.68 356.18 176.144 359.149C177.653 362.119 178.408 365.567 178.408 369.496C178.408 373.424 177.653 376.896 176.144 379.91C174.68 382.88 172.668 385.186 170.106 386.831C167.545 388.43 164.686 389.229 161.53 389.229C158.877 389.229 156.521 388.681 154.463 387.585C152.45 386.488 150.872 385.072 149.729 383.336V406.907H137.996V350.448H149.729V355.86ZM166.47 369.496C166.47 366.572 165.646 364.288 164 362.644C162.399 360.954 160.409 360.109 158.031 360.109C155.698 360.109 153.708 360.954 152.061 362.644C150.46 364.334 149.66 366.641 149.66 369.564C149.66 372.488 150.46 374.794 152.061 376.485C153.708 378.175 155.698 379.02 158.031 379.02C160.363 379.02 162.353 378.175 164 376.485C165.646 374.749 166.47 372.419 166.47 369.496Z" fill="#8593A3"/>
<path d="M195.953 356.82C197.325 354.719 199.04 353.074 201.098 351.886C203.157 350.653 205.444 350.036 207.96 350.036V362.438H204.735C201.807 362.438 199.612 363.078 198.148 364.357C196.684 365.59 195.953 367.783 195.953 370.935V388.681H184.22V350.448H195.953V356.82Z" fill="#8593A3"/>
<path d="M219.125 346.473C217.067 346.473 215.374 345.88 214.048 344.692C212.767 343.459 212.127 341.951 212.127 340.17C212.127 338.343 212.767 336.835 214.048 335.648C215.374 334.414 217.067 333.798 219.125 333.798C221.138 333.798 222.784 334.414 224.065 335.648C225.391 336.835 226.055 338.343 226.055 340.17C226.055 341.951 225.391 343.459 224.065 344.692C222.784 345.88 221.138 346.473 219.125 346.473ZM224.957 350.448V388.681H213.224V350.448H224.957Z" fill="#8593A3"/>
<path d="M256.444 350.036C260.927 350.036 264.494 351.498 267.147 354.422C269.846 357.299 271.195 361.273 271.195 366.344V388.681H259.532V367.92C259.532 365.362 258.868 363.375 257.542 361.959C256.215 360.543 254.431 359.835 252.19 359.835C249.949 359.835 248.165 360.543 246.838 361.959C245.512 363.375 244.849 365.362 244.849 367.92V388.681H233.116V350.448H244.849V355.518C246.038 353.828 247.639 352.503 249.652 351.544C251.664 350.539 253.928 350.036 256.444 350.036Z" fill="#8593A3"/>
<path d="M300.343 378.746V388.681H294.374C290.12 388.681 286.804 387.653 284.426 385.598C282.047 383.496 280.858 380.093 280.858 375.388V360.177H276.192V350.448H280.858V341.129H292.59V350.448H300.275V360.177H292.59V375.525C292.59 376.667 292.865 377.489 293.414 377.992C293.963 378.494 294.877 378.746 296.158 378.746H300.343Z" fill="#8593A3"/>
</g>
<g opacity="0.3">
<path d="M807.316 299.388C807.316 296.208 807.956 293.431 809.237 291.056C810.554 288.68 812.365 286.853 814.671 285.574C817.013 284.295 819.684 283.656 822.684 283.656C826.527 283.656 829.729 284.661 832.29 286.67C834.888 288.68 836.59 291.512 837.395 295.167H827.405C826.563 292.828 824.935 291.659 822.52 291.659C820.8 291.659 819.428 292.335 818.403 293.687C817.379 295.002 816.866 296.903 816.866 299.388C816.866 301.872 817.379 303.791 818.403 305.143C819.428 306.459 820.8 307.116 822.52 307.116C824.935 307.116 826.563 305.947 827.405 303.608H837.395C836.59 307.19 834.888 310.003 832.29 312.05C829.692 314.096 826.49 315.119 822.684 315.119C819.684 315.119 817.013 314.48 814.671 313.201C812.365 311.922 810.554 310.095 809.237 307.719C807.956 305.344 807.316 302.567 807.316 299.388Z" fill="#8593A3"/>
<path d="M851.801 274.118V314.681H842.415V274.118H851.801Z" fill="#8593A3"/>
<path d="M872.545 315.119C869.544 315.119 866.837 314.48 864.421 313.201C862.043 311.922 860.158 310.095 858.768 307.719C857.414 305.344 856.737 302.567 856.737 299.388C856.737 296.245 857.432 293.486 858.823 291.11C860.213 288.699 862.116 286.853 864.531 285.574C866.946 284.295 869.654 283.656 872.655 283.656C875.655 283.656 878.363 284.295 880.778 285.574C883.193 286.853 885.096 288.699 886.487 291.11C887.877 293.486 888.573 296.245 888.573 299.388C888.573 302.53 887.859 305.308 886.432 307.719C885.041 310.095 883.12 311.922 880.669 313.201C878.253 314.48 875.546 315.119 872.545 315.119ZM872.545 307.007C874.338 307.007 875.857 306.349 877.101 305.033C878.382 303.718 879.022 301.836 879.022 299.388C879.022 296.939 878.4 295.057 877.156 293.742C875.948 292.426 874.448 291.768 872.655 291.768C870.825 291.768 869.307 292.426 868.099 293.742C866.891 295.021 866.288 296.903 866.288 299.388C866.288 301.836 866.873 303.718 868.044 305.033C869.252 306.349 870.752 307.007 872.545 307.007Z" fill="#8593A3"/>
<path d="M923.796 284.094V314.681H914.41V310.515C913.458 311.867 912.159 312.963 910.513 313.804C908.903 314.608 907.11 315.01 905.134 315.01C902.792 315.01 900.724 314.498 898.931 313.475C897.138 312.415 895.748 310.899 894.76 308.925C893.772 306.952 893.278 304.631 893.278 301.964V284.094H902.609V300.703C902.609 302.75 903.139 304.339 904.2 305.472C905.262 306.605 906.689 307.171 908.482 307.171C910.311 307.171 911.757 306.605 912.818 305.472C913.879 304.339 914.41 302.75 914.41 300.703V284.094H923.796Z" fill="#8593A3"/>
<path d="M928.671 299.333C928.671 296.19 929.257 293.431 930.428 291.056C931.635 288.68 933.264 286.853 935.313 285.574C937.362 284.295 939.649 283.656 942.174 283.656C944.187 283.656 946.016 284.076 947.663 284.916C949.346 285.757 950.664 286.89 951.615 288.315V274.118H961.001V314.681H951.615V310.296C950.737 311.757 949.474 312.927 947.828 313.804C946.218 314.681 944.333 315.119 942.174 315.119C939.649 315.119 937.362 314.48 935.313 313.201C933.264 311.885 931.635 310.04 930.428 307.665C929.257 305.253 928.671 302.475 928.671 299.333ZM951.615 299.388C951.615 297.049 950.956 295.203 949.639 293.851C948.358 292.499 946.785 291.823 944.919 291.823C943.052 291.823 941.461 292.499 940.143 293.851C938.863 295.167 938.222 296.994 938.222 299.333C938.222 301.671 938.863 303.535 940.143 304.924C941.461 306.276 943.052 306.952 944.919 306.952C946.785 306.952 948.358 306.276 949.639 304.924C950.956 303.572 951.615 301.726 951.615 299.388Z" fill="#8593A3"/>
</g>
<g opacity="0.3">
<path d="M643.844 80.1283C643.844 76.949 644.485 74.1717 645.765 71.7964C647.083 69.4211 648.894 67.594 651.199 66.3149C653.541 65.0359 656.213 64.3964 659.213 64.3964C663.055 64.3964 666.257 65.4014 668.819 67.4112C671.417 69.4211 673.118 72.2532 673.923 75.9075H663.934C663.092 73.5688 661.464 72.3994 659.048 72.3994C657.329 72.3994 655.956 73.0754 654.932 74.4275C653.907 75.7431 653.395 77.6433 653.395 80.1283C653.395 82.6132 653.907 84.5317 654.932 85.8838C655.956 87.1994 657.329 87.8572 659.048 87.8572C661.464 87.8572 663.092 86.6878 663.934 84.349H673.923C673.118 87.9302 671.417 90.7441 668.819 92.7905C666.221 94.8369 663.019 95.8601 659.213 95.8601C656.213 95.8601 653.541 95.2206 651.199 93.9416C648.894 92.6626 647.083 90.8354 645.765 88.4601C644.485 86.0848 643.844 83.3075 643.844 80.1283Z" fill="#8593A3"/>
<path d="M692.886 95.8601C689.885 95.8601 687.177 95.2206 684.762 93.9416C682.384 92.6626 680.499 90.8354 679.109 88.4601C677.755 86.0848 677.078 83.3075 677.078 80.1283C677.078 76.9856 677.773 74.2265 679.164 71.8512C680.554 69.4394 682.457 67.594 684.872 66.3149C687.287 65.0359 689.995 64.3964 692.996 64.3964C695.996 64.3964 698.704 65.0359 701.119 66.3149C703.534 67.594 705.437 69.4394 706.828 71.8512C708.218 74.2265 708.913 76.9856 708.913 80.1283C708.913 83.271 708.2 86.0483 706.773 88.4601C705.382 90.8354 703.461 92.6626 701.009 93.9416C698.594 95.2206 695.886 95.8601 692.886 95.8601ZM692.886 87.7475C694.679 87.7475 696.197 87.0898 697.442 85.7742C698.722 84.4586 699.363 82.5767 699.363 80.1283C699.363 77.6799 698.741 75.7979 697.496 74.4823C696.289 73.1668 694.789 72.509 692.996 72.509C691.166 72.509 689.647 73.1668 688.44 74.4823C687.232 75.7614 686.628 77.6433 686.628 80.1283C686.628 82.5767 687.214 84.4586 688.385 85.7742C689.592 87.0898 691.093 87.7475 692.886 87.7475Z" fill="#8593A3"/>
<path d="M744.137 64.8349V95.4216H734.751V91.2557C733.799 92.6078 732.5 93.7041 730.853 94.5446C729.243 95.3485 727.45 95.7505 725.474 95.7505C723.132 95.7505 721.065 95.2389 719.272 94.2157C717.479 93.1559 716.088 91.6394 715.1 89.666C714.112 87.6927 713.618 85.3722 713.618 82.7046V64.8349H722.949V81.4438C722.949 83.4902 723.48 85.0799 724.541 86.2127C725.602 87.3456 727.03 87.912 728.823 87.912C730.652 87.912 732.098 87.3456 733.159 86.2127C734.22 85.0799 734.751 83.4902 734.751 81.4438V64.8349H744.137Z" fill="#8593A3"/>
<path d="M769.541 64.5061C773.127 64.5061 775.981 65.6754 778.103 68.0142C780.262 70.3164 781.342 73.4957 781.342 77.552V95.4216H772.011V78.8127C772.011 76.7663 771.48 75.1767 770.419 74.0438C769.358 72.911 767.931 72.3446 766.138 72.3446C764.345 72.3446 762.917 72.911 761.856 74.0438C760.795 75.1767 760.264 76.7663 760.264 78.8127V95.4216H750.878V64.8349H760.264V68.8912C761.216 67.5391 762.497 66.4794 764.107 65.712C765.717 64.908 767.528 64.5061 769.541 64.5061Z" fill="#8593A3"/>
<path d="M804.935 87.4735V95.4216H800.159C796.756 95.4216 794.103 94.5994 792.2 92.9549C790.298 91.274 789.346 88.5515 789.346 84.7875V72.6186H785.614V64.8349H789.346V57.3801H798.732V64.8349H804.88V72.6186H798.732V84.8972C798.732 85.8107 798.952 86.4685 799.391 86.8705C799.83 87.2725 800.562 87.4735 801.586 87.4735H804.935Z" fill="#8593A3"/>
</g>
<path d="M141.829 40.4424V51.7068H126.515V98.1624H112.436V51.7068H97.1216V40.4424H141.829Z" fill="#060011"/>
<path d="M162.562 59.929C164.208 57.4075 166.267 55.4342 168.737 54.009C171.207 52.529 173.951 51.789 176.97 51.789V66.6713H173.1C169.588 66.6713 166.953 67.4387 165.196 68.9735C163.44 70.4535 162.562 73.0846 162.562 76.8668V98.1624H148.483V52.2824H162.562V59.929Z" fill="#060011"/>
<path d="M180.489 75.1401C180.489 70.4261 181.367 66.2876 183.123 62.7246C184.935 59.1616 187.377 56.4209 190.451 54.5024C193.525 52.5838 196.955 51.6246 200.743 51.6246C203.981 51.6246 206.808 52.2824 209.223 53.5979C211.693 54.9135 213.587 56.6401 214.904 58.7779V52.2824H228.983V98.1624H214.904V91.6668C213.532 93.8046 211.611 95.5313 209.141 96.8468C206.725 98.1624 203.899 98.8201 200.66 98.8201C196.928 98.8201 193.525 97.8609 190.451 95.9424C187.377 93.969 184.935 91.2009 183.123 87.6379C181.367 84.0201 180.489 79.8542 180.489 75.1401ZM214.904 75.2224C214.904 71.7142 213.916 68.9461 211.94 66.9179C210.019 64.8898 207.659 63.8757 204.859 63.8757C202.06 63.8757 199.672 64.8898 197.696 66.9179C195.775 68.8913 194.815 71.632 194.815 75.1401C194.815 78.6483 195.775 81.4438 197.696 83.5268C199.672 85.555 202.06 86.569 204.859 86.569C207.659 86.569 210.019 85.555 211.94 83.5268C213.916 81.4987 214.904 78.7305 214.904 75.2224Z" fill="#060011"/>
<path d="M266.75 51.789C272.129 51.789 276.411 53.5431 279.594 57.0513C282.833 60.5046 284.452 65.2735 284.452 71.3579V98.1624H270.455V73.249C270.455 70.1794 269.659 67.795 268.067 66.0957C266.476 64.3964 264.335 63.5468 261.645 63.5468C258.956 63.5468 256.815 64.3964 255.223 66.0957C253.632 67.795 252.836 70.1794 252.836 73.249V98.1624H238.757V52.2824H252.836V58.3668C254.263 56.3387 256.184 54.749 258.599 53.5979C261.014 52.392 263.731 51.789 266.75 51.789Z" fill="#060011"/>
<path d="M312.513 98.8201C308.506 98.8201 304.939 98.135 301.81 96.7646C298.681 95.3942 296.211 93.5305 294.4 91.1735C292.589 88.7616 291.573 86.0757 291.354 83.1157H305.268C305.433 84.7053 306.174 85.9935 307.491 86.9801C308.808 87.9668 310.428 88.4601 312.349 88.4601C314.105 88.4601 315.45 88.1313 316.383 87.4735C317.371 86.7609 317.865 85.8564 317.865 84.7601C317.865 83.4446 317.179 82.4853 315.807 81.8824C314.434 81.2246 312.211 80.512 309.138 79.7446C305.844 78.9772 303.1 78.1824 300.904 77.3601C298.709 76.4831 296.815 75.1401 295.223 73.3313C293.632 71.4675 292.836 68.9735 292.836 65.849C292.836 63.2179 293.549 60.8335 294.976 58.6957C296.458 56.5031 298.599 54.7764 301.398 53.5157C304.253 52.255 307.628 51.6246 311.525 51.6246C317.289 51.6246 321.817 53.0498 325.11 55.9001C328.458 58.7505 330.38 62.5327 330.874 67.2468H317.865C317.645 65.6572 316.932 64.3964 315.724 63.4646C314.572 62.5327 313.035 62.0668 311.114 62.0668C309.467 62.0668 308.204 62.3957 307.326 63.0535C306.448 63.6564 306.009 64.5061 306.009 65.6024C306.009 66.9179 306.695 67.9046 308.067 68.5624C309.494 69.2201 311.69 69.8779 314.654 70.5357C318.057 71.4127 320.829 72.2898 322.97 73.1668C325.11 73.989 326.977 75.3594 328.568 77.2779C330.215 79.1416 331.066 81.6631 331.121 84.8424C331.121 87.5283 330.352 89.9401 328.815 92.0779C327.333 94.1609 325.165 95.8053 322.311 97.0113C319.512 98.2172 316.246 98.8201 312.513 98.8201Z" fill="#060011"/>
<path d="M362.376 63.9579H354.801V98.1624H340.722V63.9579H335.617V52.2824H340.722V50.9668C340.722 45.3209 342.341 41.0453 345.58 38.1401C348.818 35.1801 353.566 33.7001 359.823 33.7001C360.866 33.7001 361.635 33.7275 362.129 33.7824V45.7046C359.439 45.5401 357.546 45.9238 356.448 46.8557C355.35 47.7875 354.801 49.4594 354.801 51.8713V52.2824H362.376V63.9579Z" fill="#060011"/>
<path d="M389.492 98.8201C384.991 98.8201 380.93 97.8609 377.307 95.9424C373.739 94.0239 370.912 91.2831 368.827 87.7201C366.796 84.1572 365.78 79.9913 365.78 75.2224C365.78 70.5083 366.823 66.3698 368.909 62.8068C370.995 59.189 373.849 56.4209 377.472 54.5024C381.094 52.5838 385.156 51.6246 389.657 51.6246C394.158 51.6246 398.22 52.5838 401.842 54.5024C405.465 56.4209 408.319 59.189 410.405 62.8068C412.491 66.3698 413.534 70.5083 413.534 75.2224C413.534 79.9364 412.463 84.1024 410.323 87.7201C408.237 91.2831 405.355 94.0239 401.678 95.9424C398.055 97.8609 393.993 98.8201 389.492 98.8201ZM389.492 86.6513C392.182 86.6513 394.46 85.6646 396.326 83.6913C398.247 81.7179 399.208 78.895 399.208 75.2224C399.208 71.5498 398.275 68.7268 396.408 66.7535C394.597 64.7801 392.347 63.7935 389.657 63.7935C386.913 63.7935 384.635 64.7801 382.823 66.7535C381.012 68.672 380.106 71.495 380.106 75.2224C380.106 78.895 380.985 81.7179 382.741 83.6913C384.552 85.6646 386.803 86.6513 389.492 86.6513Z" fill="#060011"/>
<path d="M434.67 59.929C436.317 57.4075 438.375 55.4342 440.845 54.009C443.315 52.529 446.06 51.789 449.079 51.789V66.6713H445.209C441.696 66.6713 439.061 67.4387 437.305 68.9735C435.548 70.4535 434.67 73.0846 434.67 76.8668V98.1624H420.591V52.2824H434.67V59.929Z" fill="#060011"/>
<path d="M514.018 51.789C519.726 51.789 524.254 53.5157 527.603 56.969C531.006 60.4224 532.707 65.2187 532.707 71.3579V98.1624H518.711V73.249C518.711 70.289 517.915 68.0142 516.323 66.4246C514.786 64.7801 512.645 63.9579 509.901 63.9579C507.157 63.9579 504.988 64.7801 503.397 66.4246C501.86 68.0142 501.091 70.289 501.091 73.249V98.1624H487.095V73.249C487.095 70.289 486.299 68.0142 484.707 66.4246C483.17 64.7801 481.029 63.9579 478.285 63.9579C475.541 63.9579 473.372 64.7801 471.781 66.4246C470.244 68.0142 469.475 70.289 469.475 73.249V98.1624H455.396V52.2824H469.475V58.0379C470.902 56.1194 472.769 54.612 475.074 53.5157C477.379 52.3646 479.987 51.789 482.896 51.789C486.354 51.789 489.427 52.529 492.117 54.009C494.861 55.489 497.002 57.5994 498.539 60.3401C500.131 57.8187 502.299 55.7631 505.043 54.1735C507.788 52.5838 510.779 51.789 514.018 51.789Z" fill="#060011"/>
<path d="M274.133 121.404C283.068 121.404 290.877 123.213 297.559 126.831C304.321 130.368 309.514 135.352 313.137 141.784C316.759 148.216 318.571 155.572 318.571 163.852C318.571 172.053 316.719 179.369 313.016 185.8C309.393 192.232 304.201 197.297 297.438 200.995C290.757 204.613 282.988 206.422 274.133 206.422H240.442V121.404H274.133ZM272.321 185.559C279.245 185.559 284.679 183.67 288.623 179.891C292.568 176.113 294.54 170.766 294.54 163.852C294.54 156.858 292.568 151.472 288.623 147.693C284.679 143.834 279.245 141.905 272.321 141.905H264.11V185.559H272.321Z" fill="#060011"/>
<path d="M323.564 172.535C323.564 165.541 324.812 159.431 327.307 154.205C329.884 148.979 333.345 144.96 337.692 142.146C342.12 139.332 347.031 137.925 352.425 137.925C357.094 137.925 361.119 138.85 364.5 140.699C367.881 142.548 370.498 145.04 372.349 148.175V138.769H396.017V206.422H372.349V197.015C370.498 200.151 367.841 202.643 364.379 204.492C360.998 206.341 357.013 207.266 352.425 207.266C347.031 207.266 342.12 205.859 337.692 203.045C333.345 200.231 329.884 196.211 327.307 190.986C324.812 185.68 323.564 179.529 323.564 172.535ZM372.349 172.535C372.349 168.194 371.142 164.777 368.727 162.285C366.392 159.792 363.494 158.546 360.032 158.546C356.49 158.546 353.552 159.792 351.217 162.285C348.882 164.697 347.715 168.113 347.715 172.535C347.715 176.876 348.882 180.333 351.217 182.906C353.552 185.398 356.49 186.644 360.032 186.644C363.494 186.644 366.392 185.398 368.727 182.906C371.142 180.414 372.349 176.957 372.349 172.535Z" fill="#060011"/>
<path d="M447.663 186.283V206.422H437.399C420.09 206.422 411.436 197.86 411.436 180.735V158.426H403.104V138.769H411.436V122.369H435.225V138.769H447.542V158.426H435.225V181.097C435.225 182.946 435.628 184.273 436.433 185.077C437.318 185.881 438.767 186.283 440.78 186.283H447.663Z" fill="#060011"/>
<path d="M452.843 172.535C452.843 165.541 454.091 159.431 456.587 154.205C459.163 148.979 462.624 144.96 466.972 142.146C471.399 139.332 476.31 137.925 481.704 137.925C486.373 137.925 490.398 138.85 493.779 140.699C497.16 142.548 499.777 145.04 501.628 148.175V138.769H525.297V206.422H501.628V197.015C499.777 200.151 497.12 202.643 493.659 204.492C490.277 206.341 486.292 207.266 481.704 207.266C476.31 207.266 471.399 205.859 466.972 203.045C462.624 200.231 459.163 196.211 456.587 190.986C454.091 185.68 452.843 179.529 452.843 172.535ZM501.628 172.535C501.628 168.194 500.421 164.777 498.006 162.285C495.671 159.792 492.773 158.546 489.311 158.546C485.769 158.546 482.831 159.792 480.496 162.285C478.162 164.697 476.994 168.113 476.994 172.535C476.994 176.876 478.162 180.333 480.496 182.906C482.831 185.398 485.769 186.644 489.311 186.644C492.773 186.644 495.671 185.398 498.006 182.906C500.421 180.414 501.628 176.957 501.628 172.535Z" fill="#060011"/>
</svg>
